<?xml version="1.0" encoding="UTF-8" standalone="no"?>
<svg
   xmlns:dc="http://purl.org/dc/elements/1.1/"
   xmlns:cc="http://creativecommons.org/ns#"
   xmlns:rdf="http://www.w3.org/1999/02/22-rdf-syntax-ns#"
   xmlns:svg="http://www.w3.org/2000/svg"
   xmlns="http://www.w3.org/2000/svg"
   viewBox="0 0 21.333332 21.333332"
   height="21.333332"
   width="21.333332"
   xml:space="preserve"
   id="svg2"
   version="1.1"><metadata
     id="metadata8"><rdf:RDF><cc:Work
         rdf:about=""><dc:format>image/svg+xml</dc:format><dc:type
           rdf:resource="http://purl.org/dc/dcmitype/StillImage" /></cc:Work></rdf:RDF></metadata><defs
     id="defs6" /><g
     transform="matrix(1.3333333,0,0,-1.3333333,0,21.333333)"
     id="g10"><g
       transform="scale(0.1)"
       id="g12"><path
         id="path14"
         style="fill:#1171af;fill-opacity:1;fill-rule:evenodd;stroke:none"
         d="m 106.484,61.9375 h 4.891 c 0.055,-0.1367 2.746,1.0938 0.441,-4.0156 -0.269,-0.6055 -3.886,-6.293 -5.332,4.0156 z m -33.9957,15.25 c -3.3867,4.6953 -10.0508,5.0352 -14.0469,0 2.4649,-1.3633 -0.1445,-3.0234 7.9453,-2.7148 6.0196,0.2343 3.7266,-0.2813 6.1016,2.7148 z M 110.387,77.043 c -3.383,4.6953 -10.051,5.0351 -14.0472,0 2.4688,-1.3633 -0.1406,-3.0196 7.9492,-2.7149 6.016,0.2344 3.727,-0.2812 6.098,2.7149 z M 62.1875,61.4805 c -0.6992,-5.2383 -2.207,-6.043 -4.6484,-5.4883 -1.8399,0.4336 -1.4571,4.082 -1.2149,6.1523 z m -8.25,22.6679 c -4.2148,4.086 -3.6172,0.0079 -5.168,5.3789 l 70.3985,-0.2304 c -0.82,-4.0469 0.824,-1.9922 -5.07,-3.461 -0.399,-6.8203 1.054,-12.75 -2.348,-17.7656 -6.566,-2.1758 -51.2969,-2.1836 -55.8516,0.2852 -3.0625,5.1953 -1.7617,9.5195 -1.9609,15.7929 z m 5.2383,11.1289 c 5.0586,14.5507 11.7773,11.9297 35.2031,11.5427 10.1481,-0.164 10.9221,-3.804 14.5621,-11.9841 z m -6.3281,0.1094 C 32.793,92.3555 46.3555,84.9102 48.6211,78.4609 c 0.0469,-6.4218 0.8516,-12.082 1.4453,-18.5312 0.6875,-7.7578 5.1172,-11.7149 13.0313,-7.9258 2.789,1.5352 2.7812,4.4297 4.1796,9.2656 l 32.7149,0.4258 1.9608,-5.4531 c 3.008,-6.7266 10.465,-7.3477 14.152,-2.3438 3.008,4.086 0.844,23.6719 4.934,27.5469 11.762,11.1094 -4.312,13.8086 -5.027,14.2578 -4.391,2.7696 -5.461,14.6019 -16.2073,16.1949 -4.4766,0.668 -26.2695,0.629 -30.9297,0.079 C 60.3242,110.965 55.5,103.133 52.8477,95.3867" /><path
         id="path16"
         style="fill:#1171af;fill-opacity:1;fill-rule:evenodd;stroke:none"
         d="m 81.5078,145.223 c 36.1952,0 65.5352,-29.34 65.5352,-65.5316 0,-36.1953 -29.34,-65.5351 -65.5352,-65.5351 -36.1914,0 -65.5312,29.3398 -65.5312,65.5351 0,36.1916 29.3398,65.5316 65.5312,65.5316 z M 9.68359,83.6367 C 9.68359,60.8008 14.6484,44.5625 30.75,28.4648 36.1914,23.0234 42.9375,17.8594 50.3281,14.3398 100.324,-9.48438 154.137,30.1016 154.137,75.6094 v 8.0273 c 0,35.0433 -34.043,68.2153 -69.0198,68.2153 -23.5899,0 -39.6328,-6.329 -54.3711,-21.067 C 20.9805,121.023 9.68359,102.746 9.68359,83.6367" /></g></g></svg>