<?xml version="1.0" encoding="UTF-8" standalone="no"?>
<svg
   xmlns:dc="http://purl.org/dc/elements/1.1/"
   xmlns:cc="http://creativecommons.org/ns#"
   xmlns:rdf="http://www.w3.org/1999/02/22-rdf-syntax-ns#"
   xmlns:svg="http://www.w3.org/2000/svg"
   xmlns="http://www.w3.org/2000/svg"
   viewBox="0 0 21.333332 20"
   height="20"
   width="21.333332"
   xml:space="preserve"
   id="svg2"
   version="1.1"><metadata
     id="metadata8"><rdf:RDF><cc:Work
         rdf:about=""><dc:format>image/svg+xml</dc:format><dc:type
           rdf:resource="http://purl.org/dc/dcmitype/StillImage" /></cc:Work></rdf:RDF></metadata><defs
     id="defs6" /><g
     transform="matrix(1.3333333,0,0,-1.3333333,0,20)"
     id="g10"><g
       transform="scale(0.1)"
       id="g12"><path
         id="path14"
         style="fill:#58acdc;fill-opacity:1;fill-rule:evenodd;stroke:none"
         d="M 74.582,95.0078 C 93.207,99.5156 100.484,69.6289 80.9219,65.1055 61.8438,60.6875 53.9727,90.0156 74.582,95.0078 Z M 85.4844,61.668 c 1.9179,-3.4766 8.582,-13.9297 12.1719,-16.2774 3.2817,1.2539 3.2417,1.5078 5.2267,3.8438 -0.91,3.4414 -8.6838,13.664 -11.0353,17.2226 14.6753,20.8828 -7.5235,41.422 -25.25,29.8672 C 59.3281,91.5859 55.3008,80.582 60.332,70.7617 65.1914,61.2813 72.6875,59.8477 85.4844,61.668" /><path
         id="path16"
         style="fill:#fefefe;fill-opacity:1;fill-rule:evenodd;stroke:none"
         d="m 76.4453,70.0664 -4.2734,4.5469 c -2.7031,2.4687 -4.0469,0.8086 -8.0508,1.7148 1.1367,0.9727 3.4336,2.1836 5.6953,2.5821 4.0039,0.6992 1.25,-0.5743 5.3086,-1.9844 l 2.9922,15.7656 c 2.2617,-3.5117 4.0312,-7.0586 6.1562,-10.1719 9.2032,-0.082 5.6446,0.0078 7.043,-1.3593 l -8.8437,-2.5664 -2.8086,5.0585 z M 74.582,95.0078 C 53.9727,90.0156 61.8438,60.6875 80.9219,65.1055 100.484,69.6289 93.207,99.5156 74.582,95.0078" /><path
         id="path18"
         style="fill:#5dacda;fill-opacity:1;fill-rule:evenodd;stroke:none"
         d="m 79.6641,83.6523 2.8086,-5.0585 8.8437,2.5664 c -1.3984,1.3671 2.1602,1.2773 -7.043,1.3593 -2.125,3.1133 -3.8945,6.6602 -6.1562,10.1719 L 75.125,76.9258 c -4.0586,1.4101 -1.3047,2.6836 -5.3086,1.9844 -2.2617,-0.3985 -4.5586,-1.6094 -5.6953,-2.5821 4.0039,-0.9062 5.3477,0.7539 8.0508,-1.7148 l 4.2734,-4.5469 3.2188,13.5859" /><path
         id="path20"
         style="fill:#97d7fc;fill-opacity:1;fill-rule:evenodd;stroke:none"
         d="m 81.125,146.766 c 40.156,0 72.707,-32.555 72.707,-72.7113 0,-40.1563 -32.551,-72.70704 -72.707,-72.70704 -40.1562,0 -72.70703,32.55074 -72.70703,72.70704 0,40.1563 32.55083,72.7113 72.70703,72.7113 z m -0.2187,-3.11 c 38.4217,0 69.5667,-31.144 69.5667,-69.5622 0,-38.4219 -31.145,-69.56646 -69.5667,-69.56646 -38.4219,0 -69.5665,31.14456 -69.5665,69.56646 0,38.4182 31.1446,69.5622 69.5665,69.5622" /></g></g></svg>