<?xml version="1.0" encoding="UTF-8" standalone="no"?>
<svg
   xmlns:dc="http://purl.org/dc/elements/1.1/"
   xmlns:cc="http://creativecommons.org/ns#"
   xmlns:rdf="http://www.w3.org/1999/02/22-rdf-syntax-ns#"
   xmlns:svg="http://www.w3.org/2000/svg"
   xmlns="http://www.w3.org/2000/svg"
   viewBox="0 0 28 28"
   height="28"
   width="28"
   xml:space="preserve"
   id="svg2"
   version="1.1"><metadata
     id="metadata8"><rdf:RDF><cc:Work
         rdf:about=""><dc:format>image/svg+xml</dc:format><dc:type
           rdf:resource="http://purl.org/dc/dcmitype/StillImage" /></cc:Work></rdf:RDF></metadata><defs
     id="defs6" /><g
     transform="matrix(1.3333333,0,0,-1.3333333,0,28)"
     id="g10"><g
       transform="scale(0.1)"
       id="g12"><path
         id="path14"
         style="fill:#00c3f6;fill-opacity:1;fill-rule:evenodd;stroke:none"
         d="m 104.543,206.039 c 54.301,0 98.312,-44.016 98.312,-98.312 0,-54.2973 -44.011,-98.30903 -98.312,-98.30903 -54.2969,0 -98.30862,44.01173 -98.30862,98.30903 0,54.296 44.01172,98.312 98.30862,98.312" /><path
         id="path16"
         style="fill:none;stroke:#ffffff;stroke-width:5.66930008;stroke-linecap:butt;stroke-linejoin:miter;stroke-miterlimit:22.92560005;stroke-dasharray:none;stroke-opacity:1"
         d="m 104.543,206.039 c 54.301,0 98.312,-44.016 98.312,-98.312 0,-54.2973 -44.011,-98.30903 -98.312,-98.30903 -54.2969,0 -98.30862,44.01173 -98.30862,98.30903 0,54.296 44.01172,98.312 98.30862,98.312 z" /><path
         id="path18"
         style="fill:#ffffff;fill-opacity:1;fill-rule:evenodd;stroke:none"
         d="M 133.934,112.926 149.254,98.207 105.195,54.7891 60.5352,97.7148 76.0078,112.965 93.9102,95.7617 94.375,139.297 116.469,139.059 116,95.2578 133.934,112.926" /><path
         id="path20"
         style="fill:#00adef;fill-opacity:1;fill-rule:evenodd;stroke:none"
         d="m 106.121,200.98 c 51.902,-1.015 93.215,-41.308 92.258,-90 -0.055,-2.792 -0.25,-5.55 -0.574,-8.273 -2.047,39.113 -43.875,76.418 -89.903,77.32 -46.027,0.907 -99.12466,-35.871 -94.4957,-89.2223 -2.1055,7.6094 -3.1602,15.6133 -2.9961,23.8513 0.9531,48.692 43.8007,87.34 95.7108,86.324" /></g></g></svg>