<?xml version="1.0" encoding="UTF-8" standalone="no"?>
<svg
   xmlns:dc="http://purl.org/dc/elements/1.1/"
   xmlns:cc="http://creativecommons.org/ns#"
   xmlns:rdf="http://www.w3.org/1999/02/22-rdf-syntax-ns#"
   xmlns:svg="http://www.w3.org/2000/svg"
   xmlns="http://www.w3.org/2000/svg"
   viewBox="0 0 20 20"
   height="20"
   width="20"
   xml:space="preserve"
   id="svg2"
   version="1.1"><metadata
     id="metadata8"><rdf:RDF><cc:Work
         rdf:about=""><dc:format>image/svg+xml</dc:format><dc:type
           rdf:resource="http://purl.org/dc/dcmitype/StillImage" /></cc:Work></rdf:RDF></metadata><defs
     id="defs6" /><g
     transform="matrix(1.3333333,0,0,-1.3333333,0,20)"
     id="g10"><g
       transform="scale(0.1)"
       id="g12"><path
         id="path14"
         style="fill:#57abdb;fill-opacity:1;fill-rule:evenodd;stroke:none"
         d="m 72.1133,113.039 c -1.3672,0.172 -1.8516,0.395 -3.1797,-0.18 -0.8633,-0.375 -1.5195,-1.074 -1.9336,-1.82 -0.7539,-1.375 -0.6719,-3.105 0.2734,-4.43 0.3477,-0.488 0.5821,-0.578 0.9063,-0.972 -0.8047,-2.594 -2.1836,-7.18 -2.4375,-9.8792 l -5.6484,1.832 c -1.9571,0.5665 -4.0665,1.0821 -6.1563,1.379 -4.25,0.5937 -10.1016,0.6796 -11.1406,-3.2383 -0.9453,-3.586 3.0117,-8.6719 4.4531,-10.3164 2.5703,-2.9219 3.0039,-3.2461 5.5977,-5.6797 0.5546,-0.5196 1.4218,-1.2969 2.0312,-1.711 -0.1406,-0.3086 -0.0586,-0.1718 -0.3437,-0.3906 -2.3789,-1.8398 -6.0704,-5.4883 -7.8907,-7.7305 -2.0117,-2.4804 -6.0039,-7.8945 -3.707,-11.1875 1.9375,-2.7812 5.8867,-2.2656 8.4922,-2.3437 0.5312,-0.5938 0.6406,-1.0977 1.7578,-1.6992 2.1094,-1.1446 4.7383,-0.1836 5.7344,1.8633 0.9375,1.9218 -0.8828,0.8711 3.6562,2.3632 1.0469,0.3438 2.1446,0.8282 3.125,1.1055 0.2461,-0.9492 0.3946,-2.0742 0.6055,-3.0664 0.2148,-1.0117 0.4609,-2.0664 0.7148,-3.0352 1.1055,-4.1835 4.0704,-13.3632 8.9688,-13.4492 5.0195,-0.0898 7.9336,9.0977 9.0859,13.25 l 1.3594,6.1407 3.7188,-1.2032 c 3.7226,-1.164 9.0898,-2.3164 12.9687,-1.8593 5.684,0.6757 6.352,4.1875 4.313,8.5429 -0.739,1.5781 -1.153,1.8985 -1.883,3.1367 0.203,0.6172 0.863,1.2227 0.761,2.7579 -0.121,1.8398 -1.484,3.4609 -3.269,3.8359 -1.543,0.3281 -1.895,-0.1094 -2.992,-0.3945 -0.5706,0.4101 -1.9691,1.7812 -2.7269,2.4336 -0.3242,0.2734 -0.6484,0.5625 -0.9726,0.7734 0.1367,0.3711 1.4804,1.4336 1.875,1.7734 3.5425,3.0469 10.4845,10.3399 9.8595,15.1563 -0.879,6.7891 -14.1408,3.4883 -18.9572,1.957 -0.707,-0.2226 -2.0742,-0.7695 -2.6953,-0.8633 -0.1328,0.2578 -0.6367,3.0703 -0.7578,3.6367 -0.7656,3.5237 -1.875,6.9887 -3.4024,10.1367 -1.3867,2.863 -4.1875,6.633 -7.6171,5.328 -0.836,-0.316 -2.211,-1.285 -2.5469,-1.953 z m 3.043,-30.9257 c -2.0547,-0.3516 -3.8438,-2.2891 -3.4258,-4.8047 0.3359,-2.0313 2.2422,-3.8906 4.8086,-3.4727 2.1093,0.3477 3.8672,2.3321 3.4531,4.8711 -0.3477,2.0899 -2.3711,3.8243 -4.8359,3.4063 z M 59.75,77.8555 c 0.6953,-0.3867 1.5,-1.0274 2.2305,-1.5196 0.5039,-0.3437 1.8359,-1.3164 2.3672,-1.4921 -0.0196,1.9648 -0.0821,4.2578 -0.0118,6.1875 -0.4023,-0.1524 -3.2695,-2.125 -4.0156,-2.6602 -0.0976,-0.0664 -0.1758,-0.1055 -0.2969,-0.2031 -0.0312,-0.0274 -0.1171,-0.0977 -0.1406,-0.1289 -0.1523,-0.168 0.0156,0.0976 -0.1328,-0.1836 z m 8.3164,-13.625 c 0.4141,0.0937 3.9258,1.8125 4.2266,2.0586 -0.1328,0.1289 -4.4492,2.5547 -4.5664,2.5937 z m 11.1172,2.0586 c 0.3555,-0.2657 4.5703,-2.2696 4.8672,-2.3047 0.1562,1.4258 0.4726,4.0547 0.3867,5.3945 z m 8.6719,9.0937 c 0.3554,0.1289 3.3203,2.1953 3.6718,2.5195 -0.1289,0.2618 -0.5898,0.504 -0.8281,0.6719 -0.582,0.4141 -2.3945,1.7227 -2.8789,1.8867 z m -8.6563,14.1328 c 0.3242,-0.3086 2.1328,-1.2304 2.625,-1.5195 0.7852,-0.4609 1.8711,-1.2188 2.5977,-1.5508 0.125,1.043 -0.2539,4.082 -0.3672,5.2969 -0.3125,0.0078 -4.4453,-1.9375 -4.8555,-2.2266 z M 67.7148,86.9375 c 0.1329,0.0352 4.4415,2.4531 4.5782,2.5781 -0.2617,0.2188 -3.8633,1.9727 -4.2149,1.9961 z M 67.5703,83.082 C 67.3984,79.4414 67.457,76.3242 67.543,72.7148 l 4.2226,-2.4687 c 0.6914,-0.4023 1.4649,-0.8281 2.1407,-1.1992 1.1757,-0.6524 1.621,-1.125 2.2617,-0.7656 1.2304,0.6914 7.414,4.1562 8.457,4.9882 0.0742,2.8789 0.1016,5.5821 0.0273,8.4766 -0.0234,0.9414 0.1016,0.7852 -0.5976,1.207 l -6.9609,4.0664 c -1.4922,0.8243 -1.0196,0.8672 -2.4961,0.1289 -1.3868,-0.6992 -5.961,-3.3398 -7.0274,-4.0664 z m 20.125,-11.5351 c -0.0976,-1.5196 -0.2031,-3.0313 -0.3359,-4.5235 -0.1133,-1.2539 -0.4844,-3.1836 -0.4805,-4.3086 4.1172,-1.6953 9.4492,-3.7617 14.3481,-4.3515 2.652,-0.3164 6.589,-0.3008 6.312,2.8047 -0.109,1.1836 -0.84,2.4648 -1.375,3.2968 -0.504,0.7774 -1.519,2.1954 -2.101,2.6993 -0.465,-0.0703 -0.731,-0.2657 -1.297,-0.3477 -0.453,-0.0664 -1.028,-0.0625 -1.481,0.0313 -0.926,0.1836 -1.578,0.6171 -2.0858,1.0937 -1.3203,1.25 -1.5039,2.6836 -0.9179,4.7813 -0.2383,0.3046 -3.8047,3.1757 -4.2422,3.3711 -1.1524,-0.7227 -4.8672,-3.7891 -6.3438,-4.5469 z M 68.4336,61.1445 c 0.082,-2.6015 1.4336,-8.9492 2.168,-11.5234 0.7851,-2.7539 2.664,-8.2617 5.3906,-8.3438 3.8672,-0.121 6.1719,10.1719 6.8086,13.6993 0.2773,1.5586 0.8945,4.4257 0.8945,5.9765 -0.5859,0.1485 -1.3711,0.5391 -1.9765,0.7891 -0.6329,0.2617 -1.2852,0.5508 -1.9141,0.8398 -1.2109,0.5547 -2.543,1.2383 -3.7422,1.7774 -0.5039,0.2265 -1.168,-0.2735 -1.918,-0.6524 -0.664,-0.332 -1.1914,-0.5781 -1.8632,-0.8984 -0.625,-0.2969 -3.3047,-1.5391 -3.8477,-1.6641 z M 47.4219,57.8672 c 0.5898,0 3.1679,0.1406 3.4219,0.3437 l 0.121,0.3789 c 0.0118,0.0743 0.0196,0.2735 0.0313,0.3633 0.0352,0.2617 0.0937,0.5157 0.168,0.7422 0.1601,0.4766 0.3515,0.836 0.6367,1.207 0.4844,0.625 1.1172,1.2032 2.1719,1.5118 1.4648,0.4297 3.0625,-0.0039 4.0625,-0.9649 0.4023,-0.3867 0.4921,-0.6679 0.8281,-1.0195 0.8242,0.1562 2.4258,0.8555 3.25,1.1836 1.0547,0.414 2.1914,0.9883 3.1406,1.289 -0.0898,2.2227 -0.707,5.1407 -0.7461,8.0352 -1.9765,1.2617 -3.6055,2.4688 -5.4726,3.793 -0.5196,0.3672 -1.336,1.1054 -1.8399,1.3554 -2.25,-1.3554 -8.0469,-6.6445 -9.7344,-8.4179 -0.6757,-0.711 -1.4336,-1.6055 -2.0664,-2.4453 -2.4179,-3.2149 -3.9765,-7.3868 2.0274,-7.3555 z M 57.1953,79.793 64.5,84.918 c 0.0977,1.3867 0.1992,2.7109 0.332,4.0937 0.1133,1.1992 0.3828,2.6485 0.4336,3.8164 -1.5586,0.7578 -3.4492,1.4219 -5.125,2.0508 -3.3047,1.2422 -16.2031,5.5431 -16.5468,0.3945 -0.25,-3.7031 6.5468,-9.7265 9.5156,-12.2656 l 3.0078,-2.4219 C 56.4609,80.3203 56.793,80 57.1953,79.793 Z m 16.0703,32.613 c 0.4883,-0.621 0.9961,-0.82 1.3946,-2 0.6132,-1.824 -0.0743,-3.808 -1.6133,-4.832 -1.0508,-0.703 -1.4571,-0.57 -2.7774,-0.722 -0.5625,-2.145 -1.7656,-8.0786 -1.8203,-10.1606 0.3281,-0.2461 1.4258,-0.6484 1.918,-0.8672 0.6328,-0.2812 1.2539,-0.5586 1.8984,-0.8476 0.6641,-0.3047 1.2461,-0.5782 1.8672,-0.8868 2.4375,-1.2187 0.9024,-0.9609 5.6914,1.1094 1.3242,0.5703 2.5938,1.086 3.8789,1.6211 -0.4023,4.5235 -2.3789,15.2967 -5.5312,18.5117 -1.8867,1.914 -3.7344,1.074 -4.9063,-0.926 z M 86.8789,93.0195 c -0.0039,-1.1445 0.3555,-2.9961 0.4688,-4.2578 0.125,-1.3125 0.1406,-3.2187 0.3671,-4.4297 l 4.7344,-3.3398 c 0.4571,-0.3594 1.1094,-0.9063 1.5899,-1.1914 0.4179,0.1367 3.3515,2.5859 3.8476,3.0234 2.9453,2.6016 8.8633,7.75 9.2693,11.5352 0.469,4.3594 -7.14,2.8867 -9.9412,2.1836 -2.9257,-0.7344 -5.1328,-1.4727 -7.8632,-2.5157 -0.6094,-0.2304 -1.9649,-0.6953 -2.4727,-1.0078" /><path
         id="path16"
         style="fill:#97d7fc;fill-opacity:1;fill-rule:evenodd;stroke:none"
         d="m 77.2422,148.926 c 40.1558,0 72.7108,-32.555 72.7108,-72.7072 0,-40.1563 -32.555,-72.71099 -72.7108,-72.71099 -40.1524,0 -72.70704,32.55469 -72.70704,72.71099 0,40.1522 32.55464,72.7072 72.70704,72.7072 z m -0.2188,-3.106 c 38.4216,0 69.5666,-31.144 69.5666,-69.5661 0,-38.4219 -31.145,-69.5664 -69.5666,-69.5664 -38.4179,0 -69.56246,31.1445 -69.56246,69.5664 0,38.4221 31.14456,69.5661 69.56246,69.5661" /></g></g></svg>