<?xml version="1.0" encoding="UTF-8" standalone="no"?>
<svg
   xmlns:dc="http://purl.org/dc/elements/1.1/"
   xmlns:cc="http://creativecommons.org/ns#"
   xmlns:rdf="http://www.w3.org/1999/02/22-rdf-syntax-ns#"
   xmlns:svg="http://www.w3.org/2000/svg"
   xmlns="http://www.w3.org/2000/svg"
   viewBox="0 0 17.333332 20"
   height="20"
   width="17.333332"
   xml:space="preserve"
   id="svg2"
   version="1.1"><metadata
     id="metadata8"><rdf:RDF><cc:Work
         rdf:about=""><dc:format>image/svg+xml</dc:format><dc:type
           rdf:resource="http://purl.org/dc/dcmitype/StillImage" /></cc:Work></rdf:RDF></metadata><defs
     id="defs6" /><g
     transform="matrix(1.3333333,0,0,-1.3333333,0,20)"
     id="g10"><g
       transform="scale(0.1)"
       id="g12"><path
         id="path14"
         style="fill:#42c0fb;fill-opacity:1;fill-rule:evenodd;stroke:none"
         d="m 17.3477,86.7422 c 0,9.7891 3.0312,20.4808 8.0273,27.7738 l 5.3203,6.797 c 3.375,3.648 8.7695,7.863 13.4414,10.242 24.9844,12.715 54.9414,2.539 67.3983,-22.227 12.238,-24.3397 1.883,-55.4764 -24.2459,-67.1913 -21.6524,-9.7109 -47.043,-2.6054 -60.5782,16.5196 -5.4961,7.7695 -9.3632,17.6093 -9.3632,28.0859 z m -8.81254,0.5547 c 0,-5.1328 1.02343,-11.543 2.13284,-15.4961 2.2226,-7.9531 6.5742,-17.2617 12.3242,-22.9219 l 8.5351,-9.0898 C 34.3867,36.9297 64.5625,6.25391 66.918,4.67578 L 101.48,39.5156 c 6.172,6.1758 11.629,10.8555 16.086,18.6133 10.079,17.5352 9.961,36.1524 2.157,54.4341 -1.743,4.082 -8.602,14.023 -11.965,16.675 -7.133,5.633 -7.426,7.106 -17.1642,11.477 -19.5821,8.789 -44.6719,5.414 -60.7032,-8.684 C 23.1484,126.105 17.5898,119.754 13.8789,111.141 11.1367,104.77 8.53516,96.125 8.53516,87.2969" /><path
         id="path16"
         style="fill:#ffffff;fill-opacity:1;fill-rule:evenodd;stroke:none"
         d="m 66.8594,137.02 c 27.3867,0 49.5856,-22.204 49.5856,-49.5903 0,-27.3867 -22.1989,-49.5859 -49.5856,-49.5859 -27.3867,0 -49.5899,22.1992 -49.5899,49.5859 0,27.3863 22.2032,49.5903 49.5899,49.5903" /><path
         id="path18"
         style="fill:#1f82c6;fill-opacity:1;fill-rule:evenodd;stroke:none"
         d="m 41.0469,72.8477 v -3.6719 c 0,-5.4531 9.8828,-8.5117 20.9844,-9.1836 h 9.4453 c 11.1015,0.6719 20.9843,3.7305 20.9843,9.1836 v 3.6719 c 0,5.2617 -12.4961,9.0507 -18.3593,9.1836 v -4.5938 c 18.4648,-0.4102 18.1211,-12.8516 -0.9219,-12.8516 -5.4883,0 -27.5469,-1.2226 -27.5469,6.4258 0,4.2774 9.2891,6.3242 13.7735,6.4258 v 4.5938 C 53.5391,81.8984 41.0469,78.1094 41.0469,72.8477" /><path
         id="path20"
         style="fill:#1f82c6;fill-opacity:1;fill-rule:evenodd;stroke:none"
         d="M 59.4063,101.309 V 85.7031 H 63.082 V 71.0117 h 7.3399 v 14.6914 h 3.6797 c 0,21.7269 2.8867,18.3599 -11.9375,18.3599 -2.1172,0 -2.7578,-0.637 -2.7578,-2.754" /><path
         id="path22"
         style="fill:#1f82c6;fill-opacity:1;fill-rule:evenodd;stroke:none"
         d="m 61.2461,114.164 c 0,-8.789 11.0156,-8.789 11.0156,0 0,6.133 -11.0156,6.133 -11.0156,0" /></g></g></svg>