<?xml version="1.0" encoding="UTF-8" standalone="no"?>
<svg
   xmlns:dc="http://purl.org/dc/elements/1.1/"
   xmlns:cc="http://creativecommons.org/ns#"
   xmlns:rdf="http://www.w3.org/1999/02/22-rdf-syntax-ns#"
   xmlns:svg="http://www.w3.org/2000/svg"
   xmlns="http://www.w3.org/2000/svg"
   viewBox="0 0 17.333332 17.333332"
   height="17.333332"
   width="17.333332"
   xml:space="preserve"
   id="svg2"
   version="1.1"><metadata
     id="metadata8"><rdf:RDF><cc:Work
         rdf:about=""><dc:format>image/svg+xml</dc:format><dc:type
           rdf:resource="http://purl.org/dc/dcmitype/StillImage" /></cc:Work></rdf:RDF></metadata><defs
     id="defs6" /><g
     transform="matrix(1.3333333,0,0,-1.3333333,0,17.333333)"
     id="g10"><g
       transform="scale(0.1)"
       id="g12"><path
         id="path14"
         style="fill:#b8d6ec;fill-opacity:1;fill-rule:evenodd;stroke:none"
         d="m 52.7969,80.9883 c -0.4375,21.5387 2.6484,30.5667 30.6328,25.3597 0.1719,-3.907 -0.6524,-9.4964 -2.2383,-12.4613 -5.8047,0.4024 -7.4023,2.1602 -12.0781,-1.3437 L 68.8711,80.7031 82.0508,80.6602 80.9219,68.5586 68.9297,68.1484 68.6602,28.7969 52.6172,28.7461 52.4648,68.1563 44.4922,68.4258 44.8203,80.7227 Z M 3.97656,5.49609 v 0 L 124.059,5.41797 124.074,125.309 4.22656,125.5 3.97656,5.49609" /><path
         id="path16"
         style="fill:#ffffff;fill-opacity:1;fill-rule:evenodd;stroke:none"
         d="m 52.7969,80.9883 -7.9766,-0.2656 -0.3281,-12.2969 7.9726,-0.2695 0.1524,-39.4102 16.043,0.0508 0.2695,39.3515 11.9922,0.4102 1.1289,12.1016 -13.1797,0.0429 0.2422,11.8399 c 4.6758,3.5039 6.2734,1.7461 12.0781,1.3437 1.5859,2.9649 2.4102,8.5543 2.2383,12.4613 -27.9844,5.207 -31.0703,-3.821 -30.6328,-25.3597" /></g></g></svg>