<?xml version="1.0" encoding="UTF-8" standalone="no"?>
<svg
   xmlns:dc="http://purl.org/dc/elements/1.1/"
   xmlns:cc="http://creativecommons.org/ns#"
   xmlns:rdf="http://www.w3.org/1999/02/22-rdf-syntax-ns#"
   xmlns:svg="http://www.w3.org/2000/svg"
   xmlns="http://www.w3.org/2000/svg"
   viewBox="0 0 9.333333 9.333333"
   height="9.333333"
   width="9.333333"
   xml:space="preserve"
   id="svg2"
   version="1.1"><metadata
     id="metadata8"><rdf:RDF><cc:Work
         rdf:about=""><dc:format>image/svg+xml</dc:format><dc:type
           rdf:resource="http://purl.org/dc/dcmitype/StillImage" /></cc:Work></rdf:RDF></metadata><defs
     id="defs6" /><g
     transform="matrix(1.3333333,0,0,-1.3333333,0,9.3333333)"
     id="g10"><g
       transform="scale(0.1)"
       id="g12"><path
         id="path14"
         style="fill:#656263;fill-opacity:1;fill-rule:evenodd;stroke:none"
         d="M 17.8594,63.8672 V 12.2578 h 3.9414 v 21.3555 c 18.1484,-5.8438 16.582,5.25 28.5976,11.5 3.1797,1.6445 7.461,2.8437 10.2696,4.5 -0.7422,1.4336 -2.9922,2.5703 -4.4492,3.4687 -12.1329,7.5469 -21.2774,1.5078 -31.0274,8.7735 -2.5586,1.914 -1.75,1.8476 -3.6367,4.2695 -1.9453,2.4844 -3.6953,0.9688 -3.6953,-2.2578" /><path
         id="path16"
         style="fill:#656263;fill-opacity:1;fill-rule:evenodd;stroke:none"
         d="M 25.8086,23.4727 25.7109,19.4648 C 40.8281,15.6602 31.707,8.34766 19.8242,8.34766 c -11.87107,0 -20.99217,7.31254 -5.8945,11.11714 l -0.0391,4.0079 c -18.03904,-3 -14.707006,-19.04692 5.9336,-19.04692 20.6211,0 24.0039,16.02732 5.9844,19.04692" /></g></g></svg>