<?xml version="1.0" encoding="UTF-8" standalone="no"?>
<svg
   xmlns:dc="http://purl.org/dc/elements/1.1/"
   xmlns:cc="http://creativecommons.org/ns#"
   xmlns:rdf="http://www.w3.org/1999/02/22-rdf-syntax-ns#"
   xmlns:svg="http://www.w3.org/2000/svg"
   xmlns="http://www.w3.org/2000/svg"
   viewBox="0 0 20 20"
   height="20"
   width="20"
   xml:space="preserve"
   id="svg2"
   version="1.1"><metadata
     id="metadata8"><rdf:RDF><cc:Work
         rdf:about=""><dc:format>image/svg+xml</dc:format><dc:type
           rdf:resource="http://purl.org/dc/dcmitype/StillImage" /></cc:Work></rdf:RDF></metadata><defs
     id="defs6" /><g
     transform="matrix(1.3333333,0,0,-1.3333333,0,20)"
     id="g10"><g
       transform="scale(0.1)"
       id="g12"><path
         id="path14"
         style="fill:#62addc;fill-opacity:1;fill-rule:evenodd;stroke:none"
         d="m 81.1328,55.7969 -6.0078,0.0586 c -0.1758,7.5937 -0.5,10.7187 4.1328,15.3789 4.6758,4.7031 5.3086,0.4844 9.9961,5.0508 1.5156,1.4765 1.1953,1.5703 2.668,2.8867 -1.4844,-3.2735 -2.4219,-2.3711 -0.1641,-5.2031 2.3867,1.6835 1.0352,0.7304 2.6367,3.3242 l 2.4375,3.3437 c 0.1133,0.1367 0.336,0.3789 0.5196,0.5469 -1.5235,-7.3164 -3.1641,-10.0742 -7.586,-13.375 -11.9843,-8.9375 -5.4804,-5.9883 -8.6328,-12.0117 z m -34.5039,25.625 c 1.7734,-1.7891 3.8516,-5.7266 5.1016,-7.5117 3.789,3.3046 1.4765,2.5507 -0.6094,6.7265 2.2812,-2.1445 1.9219,-3.9336 4.7422,-5.539 5.7344,-3.2579 12.8008,0.9765 13.1015,-19.4336 l -5.5429,0.0586 c -4.1875,5.1562 3.2344,2.75 -9.3985,12.2109 -3.7539,2.8203 -6.6367,6.793 -7.3945,13.4883 z m 13.0117,-28.8164 11.6094,0.0781 0.293,8.2578 c 1.375,-2.9141 0.9648,-4.332 0.9101,-8.1328 l 12.0821,-0.1602 c -0.0977,14.8243 8.4023,8.5821 12.9843,19.8243 2.5005,6.1406 6.7615,20.3632 1.3243,25.7187 -4.1329,-1.0391 -3.793,-6.4883 -3.5625,-11.1289 -0.1602,-0.1406 -0.4493,-0.0937 -0.5235,-0.3555 -0.375,-1.2343 -0.289,-0.1836 -1.0664,-0.6992 -7.7773,-5.125 -1.0976,-6.3047 -11.2187,-9.1523 -6.3243,-1.7774 -8.7071,-7.2774 -10.2305,-14.086 -3.0234,5.9024 -3.5781,11.7813 -10.3711,13.9571 -8.0859,2.582 -0.6758,-1.8047 -13.1992,10.3359 0.3672,5.0859 0.5976,10.2031 -4.0508,11.4688 -4.2578,-7.6407 -1.1914,-18.8399 2.0664,-26.4375 1.7969,-4.1797 4.2617,-5.6954 7.625,-8.3086 5.8359,-4.5274 4.4414,-2.8399 5.3281,-11.1797" /><path
         id="path16"
         style="fill:#fefefe;fill-opacity:1;fill-rule:evenodd;stroke:none"
         d="m 81.1328,55.7969 c 3.1524,6.0234 -3.3515,3.0742 8.6328,12.0117 4.4219,3.3008 6.0625,6.0586 7.586,13.375 -0.1836,-0.168 -0.4063,-0.4102 -0.5196,-0.5469 L 94.3945,77.293 c -1.6015,-2.5938 -0.25,-1.6407 -2.6367,-3.3242 -2.2578,2.832 -1.3203,1.9296 0.1641,5.2031 -1.4727,-1.3164 -1.1524,-1.4102 -2.668,-2.8867 C 84.5664,71.7188 83.9336,75.9375 79.2578,71.2344 74.625,66.5742 74.9492,63.4492 75.125,55.8555 l 6.0078,-0.0586" /><path
         id="path18"
         style="fill:#fefefe;fill-opacity:1;fill-rule:evenodd;stroke:none"
         d="m 51.7305,73.9102 c -1.25,1.7851 -3.3282,5.7226 -5.1016,7.5117 0.7578,-6.6953 3.6406,-10.668 7.3945,-13.4883 12.6329,-9.4609 5.211,-7.0547 9.3985,-12.2109 l 5.5429,-0.0586 c -0.3007,20.4101 -7.3671,16.1757 -13.1015,19.4336 -2.8203,1.6054 -2.461,3.3945 -4.7422,5.539 2.0859,-4.1758 4.3984,-3.4219 0.6094,-6.7265" /><path
         id="path20"
         style="fill:#97d7fc;fill-opacity:1;fill-rule:evenodd;stroke:none"
         d="m 72.8555,147.664 c 40.1565,0 72.7075,-32.555 72.7075,-72.7109 0,-40.1523 -32.551,-72.70701 -72.7075,-72.70701 -40.1563,0 -72.707062,32.55471 -72.707062,72.70701 0,40.1559 32.550762,72.7109 72.707062,72.7109 z m -0.2188,-3.109 c 38.4223,0 69.5663,-31.141 69.5663,-69.5628 0,-38.4219 -31.144,-69.56642 -69.5663,-69.56642 -38.4219,0 -69.56639,31.14452 -69.56639,69.56642 0,38.4218 31.14449,69.5628 69.56639,69.5628" /></g></g></svg>