<?xml version="1.0" encoding="UTF-8" standalone="no"?>
<svg
   xmlns:dc="http://purl.org/dc/elements/1.1/"
   xmlns:cc="http://creativecommons.org/ns#"
   xmlns:rdf="http://www.w3.org/1999/02/22-rdf-syntax-ns#"
   xmlns:svg="http://www.w3.org/2000/svg"
   xmlns="http://www.w3.org/2000/svg"
   viewBox="0 0 16 14.666667"
   height="14.666667"
   width="16"
   xml:space="preserve"
   id="svg2"
   version="1.1"><metadata
     id="metadata8"><rdf:RDF><cc:Work
         rdf:about=""><dc:format>image/svg+xml</dc:format><dc:type
           rdf:resource="http://purl.org/dc/dcmitype/StillImage" /></cc:Work></rdf:RDF></metadata><defs
     id="defs6" /><g
     transform="matrix(1.3333333,0,0,-1.3333333,0,14.666667)"
     id="g10"><g
       transform="scale(0.1)"
       id="g12"><path
         id="path14"
         style="fill:#000000;fill-opacity:1;fill-rule:evenodd;stroke:none"
         d="M 45.6328,10.0742 H 23.4141 v 35.6485 c 0,0.7578 8.414,8.7617 9.0859,9.4296 2.2227,2.2266 26.8008,27.0625 27.9492,27.836 1.1758,-0.7891 30.6367,-30.5235 34.7774,-34.6641 0.5117,-0.5117 2.2578,-1.8945 2.2578,-2.6015 V 10.0742 H 75.2656 V 39.7031 H 45.6328 Z m 74.0702,32.7852 v -1.7266 c -0.109,-1.0156 -0.39,-2.0117 -0.84,-2.9062 -0.527,-1.043 -0.64,-1.0547 -1.414,-1.8282 -1.086,-1.0859 -2.625,-2.0195 -4.687,-2.0195 -5.422,0 -5.309,2.4531 -7.875,4.1641 V 2.4375 H 16.0117 V 38.543 C 14.8945,37.8008 14.2383,36.707 13.168,35.8281 10.6445,33.7578 6.03906,33.8047 3.44922,36.3984 1.24609,38.5977 1.19531,39.957 1.19531,42.5859 v 0.125 c 0,1.0235 0.53907,2.3243 0.96094,2.9766 0.51563,0.7969 1.08594,1.2695 1.75781,1.9414 1.32813,1.3281 2.49219,2.4883 3.81641,3.8203 2.57033,2.5664 4.96483,4.961 7.52733,7.5235 5.0703,5.0742 9.9766,9.9726 15.043,15.0429 0.8867,0.8867 29.043,29.2894 30.1484,30.0354 L 117.098,47.5156 c 0.675,-0.6718 1.226,-1.1328 1.734,-1.9687 0.484,-0.7969 0.77,-1.7227 0.871,-2.6875" /></g></g></svg>