<?xml version="1.0" encoding="UTF-8" standalone="no"?>
<svg
   xmlns:dc="http://purl.org/dc/elements/1.1/"
   xmlns:cc="http://creativecommons.org/ns#"
   xmlns:rdf="http://www.w3.org/1999/02/22-rdf-syntax-ns#"
   xmlns:svg="http://www.w3.org/2000/svg"
   xmlns="http://www.w3.org/2000/svg"
   viewBox="0 0 9.333333 9.333333"
   height="9.333333"
   width="9.333333"
   xml:space="preserve"
   id="svg2"
   version="1.1"><metadata
     id="metadata8"><rdf:RDF><cc:Work
         rdf:about=""><dc:format>image/svg+xml</dc:format><dc:type
           rdf:resource="http://purl.org/dc/dcmitype/StillImage" /></cc:Work></rdf:RDF></metadata><defs
     id="defs6" /><g
     transform="matrix(1.3333333,0,0,-1.3333333,0,9.3333333)"
     id="g10"><g
       transform="scale(0.1)"
       id="g12"><path
         id="path14"
         style="fill:#656263;fill-opacity:1;fill-rule:evenodd;stroke:none"
         d="m 45.6602,16.3359 h 12.082 V 8.28906 h -12.082 z m -28.1719,0 H 29.5664 V 8.28906 H 17.4883 Z M 53.7188,28.418 h 8.0429 V 20.3633 H 53.707 Z m -12.0547,0 h 8.0312 l -0.0117,-8.0547 h -8.0469 z m -16.1211,0 h 8.0468 l 0.0313,-8.0547 h -8.0859 z m -12.0782,0 h 8.043 v -8.0547 h -8.043 z m 40.254,12.0703 h 8.0429 l 0.0117,-8.0469 H 53.707 Z m -12.0821,0 h 8.0586 v -8.0469 h -8.0586 z m -16.1015,0 h 8.0546 v -8.0469 h -8.0546 z m -12.0704,0 h 8.043 l 0.0117,-8.0469 h -8.0547 z m 12.0704,12.082 h 8.0546 v -8.0586 h -8.0546 z m -12.0625,0 h 8.0351 v -8.0586 h -8.043 z m 12.082,12.0703 h 8.0351 v -8.0468 h -8.0546 z m -12.082,0 h 8.0351 v -8.0468 h -8.043 z M 9.4375,8.28906 H 5.41797 V 4.26563 H 69.8125 V 8.28906 H 65.7891 V 44.5117 H 37.6133 V 68.6602 H 9.4375 V 8.28906" /><path
         id="path16"
         style="fill:#ffffff;fill-opacity:1;fill-rule:evenodd;stroke:none"
         d="m 45.6602,8.28906 h 12.082 v 8.04688 h -12.082 z" /><path
         id="path18"
         style="fill:#ffffff;fill-opacity:1;fill-rule:evenodd;stroke:none"
         d="m 17.4883,8.28906 h 12.0781 v 8.04688 H 17.4883 Z" /><path
         id="path20"
         style="fill:#fefefe;fill-opacity:1;fill-rule:evenodd;stroke:none"
         d="m 25.5352,20.3633 h 8.0859 L 33.5898,28.418 H 25.543 l -0.0078,-8.0547" /><path
         id="path22"
         style="fill:#fefefe;fill-opacity:1;fill-rule:evenodd;stroke:none"
         d="m 25.5352,44.5117 h 8.05469 v 8.05859 H 25.5352 Z" /><path
         id="path24"
         style="fill:#fefefe;fill-opacity:1;fill-rule:evenodd;stroke:none"
         d="m 41.6367,32.4414 h 8.05859 v 8.04688 H 41.6367 Z" /><path
         id="path26"
         style="fill:#fefefe;fill-opacity:1;fill-rule:evenodd;stroke:none"
         d="m 13.4648,32.4414 h 8.0547 l -0.0117,8.0469 h -8.043 v -8.0469" /><path
         id="path28"
         style="fill:#fefefe;fill-opacity:1;fill-rule:evenodd;stroke:none"
         d="m 53.707,32.4414 h 8.0664 l -0.0117,8.0469 H 53.7188 L 53.707,32.4414" /><path
         id="path30"
         style="fill:#fefefe;fill-opacity:1;fill-rule:evenodd;stroke:none"
         d="m 13.4648,20.3633 h 8.04297 v 8.05469 H 13.4648 Z" /><path
         id="path32"
         style="fill:#fefefe;fill-opacity:1;fill-rule:evenodd;stroke:none"
         d="m 25.5352,32.4414 h 8.05469 v 8.04688 H 25.5352 Z" /><path
         id="path34"
         style="fill:#fefefe;fill-opacity:1;fill-rule:evenodd;stroke:none"
         d="m 53.707,20.3633 h 8.0547 V 28.418 H 53.7188 L 53.707,20.3633" /><path
         id="path36"
         style="fill:#fefefe;fill-opacity:1;fill-rule:evenodd;stroke:none"
         d="m 13.4648,44.5117 h 8.043 v 8.0586 h -8.0351 l -0.0079,-8.0586" /><path
         id="path38"
         style="fill:#fefefe;fill-opacity:1;fill-rule:evenodd;stroke:none"
         d="m 13.4648,56.5938 h 8.043 v 8.0468 h -8.0351 l -0.0079,-8.0468" /><path
         id="path40"
         style="fill:#fefefe;fill-opacity:1;fill-rule:evenodd;stroke:none"
         d="m 25.5352,56.5938 h 8.0546 v 8.0468 h -8.0351 l -0.0195,-8.0468" /><path
         id="path42"
         style="fill:#fefefe;fill-opacity:1;fill-rule:evenodd;stroke:none"
         d="m 41.6367,20.3633 h 8.0469 l 0.0117,8.0547 h -8.0312 l -0.0274,-8.0547" /></g></g></svg>