<?xml version="1.0" encoding="UTF-8" standalone="no"?>
<svg
   xmlns:dc="http://purl.org/dc/elements/1.1/"
   xmlns:cc="http://creativecommons.org/ns#"
   xmlns:rdf="http://www.w3.org/1999/02/22-rdf-syntax-ns#"
   xmlns:svg="http://www.w3.org/2000/svg"
   xmlns="http://www.w3.org/2000/svg"
   viewBox="0 0 17.333332 17.333332"
   height="17.333332"
   width="17.333332"
   xml:space="preserve"
   id="svg2"
   version="1.1"><metadata
     id="metadata8"><rdf:RDF><cc:Work
         rdf:about=""><dc:format>image/svg+xml</dc:format><dc:type
           rdf:resource="http://purl.org/dc/dcmitype/StillImage" /></cc:Work></rdf:RDF></metadata><defs
     id="defs6" /><g
     transform="matrix(1.3333333,0,0,-1.3333333,0,17.333333)"
     id="g10"><g
       transform="scale(0.1)"
       id="g12"><path
         id="path14"
         style="fill:#b8d6ec;fill-opacity:1;fill-rule:evenodd;stroke:none"
         d="M 96.7109,80.5273 C 100.066,69.4727 102.352,55.7305 93.625,45.7383 79.6992,26.8789 50.8516,27.3984 39.1445,48.8906 33.6953,59.6445 35.3086,68.4727 38.2109,80.5117 L 6.39063,80.5273 6.26563,4.42188 H 127.32 L 126.637,80.5273 H 96.7109" /><path
         id="path16"
         style="fill:#b8d6ec;fill-opacity:1;fill-rule:evenodd;stroke:none"
         d="M 93.4375,113.992 H 115.977 L 115.953,99.5508 H 93.5195 Z M 6.28516,85.0469 v 0 c 7.79294,0 29.85934,-1.2227 35.80864,0.8008 7.914,2.6875 8.0546,11.0898 25.6562,10.832 15.0195,-0.2188 19.0547,-8.5742 25.7266,-10.8086 6.9684,-2.3359 25.3864,-0.8242 33.7964,-0.8242 l -0.222,40.3511 H 6.28516 V 85.0469" /><path
         id="path18"
         style="fill:#b8d6ec;fill-opacity:1;fill-rule:evenodd;stroke:none"
         d="M 45.0039,62.0352 C 46.957,34.5156 93.3008,36.75 89.3828,67.7031 85.9258,94.9336 42.8594,92.5234 45.0039,62.0352" /><path
         id="path20"
         style="fill:#ffffff;fill-opacity:1;fill-rule:evenodd;stroke:none"
         d="m 93.5195,99.5508 h 22.4335 l 0.024,14.4412 H 93.4375 l 0.082,-14.4412" /></g></g></svg>