<?xml version="1.0" encoding="UTF-8" standalone="no"?>
<svg
   xmlns:dc="http://purl.org/dc/elements/1.1/"
   xmlns:cc="http://creativecommons.org/ns#"
   xmlns:rdf="http://www.w3.org/1999/02/22-rdf-syntax-ns#"
   xmlns:svg="http://www.w3.org/2000/svg"
   xmlns="http://www.w3.org/2000/svg"
   viewBox="0 0 21.333332 20"
   height="20"
   width="21.333332"
   xml:space="preserve"
   id="svg2"
   version="1.1"><metadata
     id="metadata8"><rdf:RDF><cc:Work
         rdf:about=""><dc:format>image/svg+xml</dc:format><dc:type
           rdf:resource="http://purl.org/dc/dcmitype/StillImage" /></cc:Work></rdf:RDF></metadata><defs
     id="defs6" /><g
     transform="matrix(1.3333333,0,0,-1.3333333,0,20)"
     id="g10"><g
       transform="scale(0.1)"
       id="g12"><path
         id="path14"
         style="fill:#57abdb;fill-opacity:1;fill-rule:evenodd;stroke:none"
         d="m 45.4805,79.5273 c -2.2852,0.1915 -5.2422,1.0274 -7.5352,1.0782 v 0 c 0.9297,-1.7578 10.4844,-15.418 11.4844,-16.1524 1.207,1.8008 10.7109,14.5977 11.125,16.1524 -2.2813,-0.1875 -5.2383,-1.0235 -7.5352,-1.0782 0.0547,2.5157 1.8633,6.1602 2.9375,7.836 11.0352,17.1287 35.7852,15.3317 44.328,-2.9258 4.453,-9.5078 1.988,-20.8086 -5.1756,-27.9687 -2.4141,-2.4141 -4.0821,-3.6368 -7.3867,-5.1797 -7.9883,-3.7422 -17.3946,-2.5547 -24.5157,2.1757 -1.6328,1.086 -2.1015,1.875 -3.7265,2.7305 l -4.9453,-4.7422 c 3.0976,-4.7187 13.9882,-9.6133 21.0976,-9.6133 h 3.5899 c 15.4375,0 30.4763,15.0196 30.5113,30.4571 v 0.289 c -0.035,10.0391 -2.277,17.3008 -9.421,24.4454 -5.2232,5.2187 -13.2192,9.4217 -21.0903,9.4217 -7.8868,0 -13.1368,-0.832 -19.8164,-5.312 -4.8282,-3.2387 -7.1485,-5.766 -10.2696,-10.9066 -1.289,-2.1133 -3.5859,-7.5899 -3.6562,-10.7071" /><path
         id="path16"
         style="fill:#57abdb;fill-opacity:1;fill-rule:evenodd;stroke:none"
         d="m 69.5313,66.9648 c 0,-2.5117 2.1445,-3.5859 4.6679,-3.5859 2.0235,0 3.0039,3.9805 3.6406,5.6914 1.9102,5.125 -0.2929,3.125 11.0274,7.6406 1.9023,0.7579 5.4336,1.6289 5.4336,4.2539 0,2.9297 -2.043,5.2344 -6.4766,3.2461 L 75.3828,79.0625 C 73.3867,78.1563 73.2969,77.9141 72.5,75.8438 71.9609,74.4609 69.5313,68.0352 69.5313,66.9648" /><path
         id="path18"
         style="fill:#97d7fc;fill-opacity:1;fill-rule:evenodd;stroke:none"
         d="m 78.0508,146.227 c 40.1562,0 72.7112,-32.551 72.7112,-72.7075 0,-40.1562 -32.555,-72.707 -72.7112,-72.707 -40.1563,0 -72.70705,32.5508 -72.70705,72.707 0,40.1565 32.55075,72.7075 72.70705,72.7075 z m -0.2188,-3.106 c 38.422,0 69.566,-31.144 69.566,-69.5624 0,-38.4219 -31.144,-69.56641 -69.566,-69.56641 -38.4179,0 -69.56247,31.14451 -69.56247,69.56641 0,38.4184 31.14457,69.5624 69.56247,69.5624" /></g></g></svg>