<?xml version="1.0" encoding="UTF-8" standalone="no"?>
<svg
   xmlns:dc="http://purl.org/dc/elements/1.1/"
   xmlns:cc="http://creativecommons.org/ns#"
   xmlns:rdf="http://www.w3.org/1999/02/22-rdf-syntax-ns#"
   xmlns:svg="http://www.w3.org/2000/svg"
   xmlns="http://www.w3.org/2000/svg"
   viewBox="0 0 20 20"
   height="20"
   width="20"
   xml:space="preserve"
   id="svg2"
   version="1.1"><metadata
     id="metadata8"><rdf:RDF><cc:Work
         rdf:about=""><dc:format>image/svg+xml</dc:format><dc:type
           rdf:resource="http://purl.org/dc/dcmitype/StillImage" /></cc:Work></rdf:RDF></metadata><defs
     id="defs6" /><g
     transform="matrix(1.3333333,0,0,-1.3333333,0,20)"
     id="g10"><g
       transform="scale(0.1)"
       id="g12"><path
         id="path14"
         style="fill:#55c49c;fill-opacity:1;fill-rule:evenodd;stroke:none"
         d="m 9.65234,8.21484 h 132.883 v 132.879 H 9.65234 Z" /><path
         id="path16"
         style="fill:#ffffff;fill-opacity:1;fill-rule:evenodd;stroke:none"
         d="m 35.8477,76.6016 v -3.0078 c 0,-5.3438 1.9257,-11.9571 3.7421,-15.5625 0.3008,-0.5899 0.5,-0.9961 0.7969,-1.586 l 4.2031,-6.5547 c 1.3321,-1.5547 3.1172,-3.7968 4.711,-4.9453 1.4375,-1.0351 2.3047,-2.0664 4.8125,-3.7383 2.4765,-1.6523 5.1836,-3.0039 7.9922,-4.0351 3.7617,-1.3906 7.7304,-2.5156 12.0468,-2.5156 l -4.4726,4.3945 c -2.3555,2.3555 -1.8086,0.4219 0.7383,6.7773 l 3.8945,8.7696 c -0.7773,0.5234 -6.4609,5.2265 -6.6484,5.2265 -0.9414,0 -3.4219,-1.0625 -4.4961,-1.3633 -3.1446,-0.875 -6.043,-1.9062 -9.0977,-2.9296 -0.8164,-0.2774 -3.9101,-1.4063 -4.6133,-1.4063 -0.6406,0 -3.4023,5.0742 -3.8984,6.0664 -0.4297,0.8516 -0.6875,1.5234 -1.0508,2.4336 -3.1601,7.7813 -3.0195,16.2578 -0.332,24.168 0.4062,1.1914 0.8789,2.4453 1.5156,3.5508 0.1524,0.2656 0.2422,0.4101 0.3906,0.7148 0.6836,1.375 1.4883,2.5703 2.3321,3.8398 0.3007,0.4493 0.539,0.8008 0.8593,1.2032 0.1758,0.2265 0.2461,0.25 0.4414,0.5078 1.1016,1.4804 2.6368,3.1836 4.1133,4.2736 0.293,0.215 0.336,0.301 0.5782,0.535 l 2.3359,1.781 c 0.4023,0.281 0.793,0.528 1.2344,0.821 7.3086,4.89 17.664,6.597 26.4687,4.398 4.2305,-1.055 7.832,-2.742 11.3633,-5.094 l 2.8359,-2.23 c 0.3203,-0.293 0.3282,-0.211 0.6368,-0.473 1.4807,-1.2421 2.8637,-2.8124 4.0277,-4.3632 4.207,-5.6172 7.254,-12.6601 7.254,-19.8125 0,-5.2851 -0.481,-9.2617 -2.333,-13.8203 -0.32,-0.8008 -0.64,-1.6211 -0.992,-2.3281 -0.613,-1.2188 -3.297,-6.1719 -3.957,-6.1719 -1.129,0 -16.8943,5.6992 -18.0466,5.6992 -0.2617,0 -0.7149,-0.3554 -0.9102,-0.5195 -0.3398,-0.2891 -0.5469,-0.4258 -0.8711,-0.707 C 82.5625,57.8242 79,55.2969 78.4258,54.4414 c 0.8633,-1.625 1.5234,-3.4453 2.3281,-5.1172 l 0.7774,-1.75 c 0.2773,-0.6992 0.4648,-1.0078 0.7148,-1.6601 0.125,-0.3243 0.2344,-0.5078 0.4062,-0.8594 0.6915,-1.4414 1.2032,-2.9766 1.9493,-4.3867 -0.7891,-1.1719 -2.5938,-2.6602 -3.6797,-3.7578 -0.7539,-0.7618 -1.7305,-1.3516 -2.336,-2.2539 4.9961,0 9.2422,1.4414 13.6329,3.1445 0.6757,0.2617 1.1328,0.5586 1.7421,0.789 2.0274,0.7813 4.2461,2.3829 6.0591,3.5977 l 2.031,1.6055 c 0.324,0.2812 0.375,0.2265 0.719,0.5547 0.238,0.2304 0.281,0.3203 0.57,0.5312 0.383,0.2813 0.359,0.2461 0.691,0.5781 0.457,0.4649 0.805,0.8086 1.266,1.2657 2.027,2.0273 3.726,4.3046 5.328,6.7031 2.375,3.5586 4.055,7.6836 5.098,11.8398 1.922,7.6953 1.437,16.2891 -1.18,23.7071 -1.285,3.6328 -3.602,8.0546 -6.082,11.0117 l -5.375,5.7066 c -0.34,0.325 -0.395,0.278 -0.715,0.551 -0.465,0.395 -0.808,0.727 -1.281,1.098 -0.496,0.394 -0.949,0.691 -1.4845,1.047 -3.3516,2.238 -4.3125,2.676 -7.8828,4.304 -1.7618,0.805 -3.6485,1.348 -5.6016,1.836 -5.9453,1.485 -13.4219,1.524 -19.375,0.036 -4.2109,-1.055 -8.3828,-2.672 -12,-5.102 l -1.5156,-1.012 c -1.0274,-0.683 -1.8789,-1.308 -2.7813,-2.129 l -3.7422,-3.539 c -0.3867,-0.523 -0.8554,-0.808 -1.2343,-1.297 L 42.3672,97.3086 C 42.0156,96.7734 41.7617,96.2734 41.418,95.7227 40.7383,94.6328 40.3008,93.7266 39.6992,92.5391 37.3086,87.8008 35.8477,82.0195 35.8477,76.6016" /><path
         id="path18"
         style="fill:#ffffff;fill-opacity:1;fill-rule:evenodd;stroke:none"
         d="m 62.2813,84.043 c 0,-2.0899 -0.129,-4.418 0.3789,-6.4297 0.1015,-0.4024 0.2812,-1.0313 0.3867,-1.3516 0.164,-0.4961 0.3281,-0.7109 0.5234,-1.2187 0.2774,-0.7266 0.832,-1.543 1.2735,-2.2071 0.8359,-1.2539 2.2343,-2.6484 3.4843,-3.4843 0.668,-0.4414 1.4649,-0.9766 2.1836,-1.2969 9.4219,-4.2344 19.9453,2.6211 19.9453,12.9805 0,4.7382 0.0743,7 -2.5312,10.9218 -1.1055,1.6602 -1.4766,1.7657 -2.5703,2.8086 -0.6953,0.6602 -1.3164,0.9727 -2.0547,1.4336 -0.3867,0.2422 -0.668,0.4141 -1.1367,0.6016 -2.6368,1.0625 -2.6485,0.9961 -5.0039,1.168 -1.1211,0.082 -0.25,0.1562 -1.4297,0.0117 -0.3047,-0.0313 -0.6485,0.0078 -0.9492,0 -2.6797,-0.0821 -6.3946,-2.0547 -8.3477,-4.0039 -2.4805,-2.4883 -4.1523,-6.3086 -4.1523,-9.9336" /></g></g></svg>