<?xml version="1.0" encoding="UTF-8" standalone="no"?>
<svg
   xmlns:dc="http://purl.org/dc/elements/1.1/"
   xmlns:cc="http://creativecommons.org/ns#"
   xmlns:rdf="http://www.w3.org/1999/02/22-rdf-syntax-ns#"
   xmlns:svg="http://www.w3.org/2000/svg"
   xmlns="http://www.w3.org/2000/svg"
   viewBox="0 0 13.333333 17.333332"
   height="17.333332"
   width="13.333333"
   xml:space="preserve"
   id="svg2"
   version="1.1"><metadata
     id="metadata8"><rdf:RDF><cc:Work
         rdf:about=""><dc:format>image/svg+xml</dc:format><dc:type
           rdf:resource="http://purl.org/dc/dcmitype/StillImage" /></cc:Work></rdf:RDF></metadata><defs
     id="defs6" /><g
     transform="matrix(1.3333333,0,0,-1.3333333,0,17.333333)"
     id="g10"><g
       transform="scale(0.1)"
       id="g12"><path
         id="path14"
         style="fill:#bccdc8;fill-opacity:1;fill-rule:evenodd;stroke:none"
         d="m 48.125,120.07 c 23.8164,0 43.1211,-19.308 43.1211,-43.1247 0,-23.3867 -18.6211,-42.4297 -41.8477,-43.1015 L 49.0625,8.81641 20.7461,43.6289 C 11.1328,51.5391 5,63.5234 5,76.9453 5,100.762 24.3047,120.07 48.125,120.07 Z m 6.7422,-40.1208 v 14.1133 h 14.1797 v -11.207 c 0,-5.9961 -0.7813,-10.3516 -2.3672,-13.0274 -2.0859,-3.5976 -5.3516,-6.2968 -9.8516,-8.1406 l -3.1679,4.7266 c 2.7148,1.039 4.7031,2.5625 5.9843,4.6093 1.2578,2.0547 1.9844,5.0313 2.1368,8.9258 z m -22.7774,0 v 14.1133 h 14.1797 v -11.207 c 0,-5.9961 -0.7812,-10.3516 -2.3632,-13.0274 -2.086,-3.5976 -5.3516,-6.2968 -9.8555,-8.1406 l -3.1641,4.7266 c 2.7149,1.039 4.6992,2.5625 5.9805,4.6093 1.2578,2.0547 1.9883,5.0313 2.1367,8.9258 h -6.9141" /></g></g></svg>