<?xml version="1.0" encoding="UTF-8" standalone="no"?>
<svg
   xmlns:dc="http://purl.org/dc/elements/1.1/"
   xmlns:cc="http://creativecommons.org/ns#"
   xmlns:rdf="http://www.w3.org/1999/02/22-rdf-syntax-ns#"
   xmlns:svg="http://www.w3.org/2000/svg"
   xmlns="http://www.w3.org/2000/svg"
   viewBox="0 0 116 30.666668"
   height="30.666668"
   width="116"
   xml:space="preserve"
   id="svg2"
   version="1.1"><metadata
     id="metadata8"><rdf:RDF><cc:Work
         rdf:about=""><dc:format>image/svg+xml</dc:format><dc:type
           rdf:resource="http://purl.org/dc/dcmitype/StillImage" /></cc:Work></rdf:RDF></metadata><defs
     id="defs6" /><g
     transform="matrix(1.3333333,0,0,-1.3333333,0,30.666667)"
     id="g10"><g
       transform="scale(0.1)"
       id="g12"><path
         id="path14"
         style="fill:#b1e5f3;fill-opacity:1;fill-rule:evenodd;stroke:none"
         d="m 0.96875,59.082 h 301.629 V 224.605 H 0.96875 Z" /><path
         id="path16"
         style="fill:#008bbd;fill-opacity:1;fill-rule:evenodd;stroke:none"
         d="m 301.07,59.0938 h 357.145 v 166.855 H 301.07 Z" /><path
         id="path18"
         style="fill:#00648e;fill-opacity:1;fill-rule:evenodd;stroke:none"
         d="M 658.211,59.0938 H 869.59 v 166.855 H 658.211 Z" /><path
         id="path20"
         style="fill:#dbf3fb;fill-opacity:1;fill-rule:evenodd;stroke:none"
         d="m 0.96875,142.52 h 300.102 v 83.4297 H 0.96875 Z" /><path
         id="path22"
         style="fill:#00a9ce;fill-opacity:1;fill-rule:evenodd;stroke:none"
         d="m 301.07,142.52 h 357.145 v 83.4297 H 301.07 Z" /><path
         id="path24"
         style="fill:#008caa;fill-opacity:1;fill-rule:evenodd;stroke:none"
         d="m 658.262,142.559 h 211.184 v 83.4297 H 658.262 Z" /><path
         id="path26"
         style="fill:#00648e;fill-opacity:1;fill-rule:nonzero;stroke:none"
         d="m 2.18359,11.1172 h 4.10157 l 0.60937,11.5976 c 0.15235,2.6875 0.30469,5.9258 0.40625,8.8165 H 7.50391 C 8.10938,29.25 9.17578,25.707 9.93359,23.375 L 14.2891,11.2656 h 3.2461 l 4.7109,12.3633 c 1.3672,3.75 2.0273,5.7266 2.6836,7.9531 h 0.1523 c 0.1016,-2.9882 0.3047,-6.1328 0.4571,-8.7656 l 0.5547,-11.6992 h 4.2578 L 28.6289,35.6367 H 23.1055 L 19.1563,24.9453 C 18.1914,22.2617 16.8242,18.3594 16.2656,16.5352 H 16.168 c -0.5586,1.9257 -1.6211,4.914 -2.2305,6.7382 L 9.48047,35.6367 H 4.00781 Z M 89.0156,22.5664 c 0.0469,0.4531 0.1485,1.1641 0.1485,2.0781 0,4.5039 -2.125,11.5469 -10.1289,11.5469 -7.1446,0 -11.5,-5.8242 -11.5,-13.2226 0,-7.3985 4.5039,-12.3594 12.0546,-12.3594 3.9024,0 6.586,0.8086 8.1563,1.5195 l -0.7578,3.1914 c -1.6719,-0.7109 -3.5977,-1.2695 -6.7891,-1.2695 -4.457,0 -8.3086,2.4844 -8.4101,8.5156 z m -17.1758,3.1914 c 0.3555,3.0899 2.3282,7.2461 6.836,7.2461 5.0195,0 6.2344,-4.4101 6.1836,-7.2461 z m 58.8162,9.8789 V 29.25 c 0,-3.4453 -0.457,-6.7344 -1.422,-9.7734 -0.554,-1.7774 -1.363,-3.4493 -2.429,-5.0196 l -2.075,-0.0507 0.2,-11.0938 h 3.496 l 0.203,7.8047 h 16.98 l 0.2,-7.8047 h 3.504 l 0.257,11.0938 -2.554,0.0507 v 21.1797 z m 3.949,-3.3945 h 8.055 V 14.5078 h -11.297 c 0.762,1.3711 1.469,2.8906 1.977,4.5586 0.812,2.7344 1.265,5.8789 1.265,9.1211 z m 53.344,3.3945 V 11.1172 h 5.117 c 2.637,4.3047 5.321,9.0156 7.653,12.8125 1.414,2.4844 2.48,4.4609 4.051,7.6016 h 0.152 C 204.719,27.5781 204.617,25.5039 204.617,21.5 V 11.1172 h 4.254 v 24.5195 h -5.215 l -7.652,-12.6679 c -1.621,-2.836 -2.481,-4.5586 -3.949,-7.5469 l -0.153,0.0508 c 0.203,3.4961 0.254,5.9257 0.254,9.8281 v 10.3359 z m 61.25,0 V 11.1172 h 4.403 v 11.0937 h 11.656 V 11.1172 h 4.406 v 24.5195 h -4.406 v -9.8789 h -11.656 v 9.8789 z m 77.656,-20.2656 c -1.265,-0.5586 -2.937,-1.2148 -5.468,-1.2148 -4.867,0 -8.516,3.4921 -8.516,9.1679 0,5.1172 3.043,9.2696 8.668,9.2696 2.43,0 4.102,-0.5547 5.168,-1.1641 l 1.012,3.4453 c -1.219,0.6094 -3.547,1.2695 -6.18,1.2695 -8.008,0 -13.172,-5.4765 -13.172,-13.0234 0,-7.4961 4.813,-12.5117 12.207,-12.5117 3.293,0 5.875,0.8086 7.043,1.4179 z m 39.157,20.2656 V 11.1172 h 4.41 v 10.7851 h 0.859 c 4.157,0 6.438,-1.8203 8.106,-5.7734 0.761,-2.0273 1.621,-3.9492 2.281,-5.0117 h 4.66 c -1.113,1.9726 -1.973,4.3555 -2.633,5.9766 -1.925,4.4062 -4.308,7.0429 -8.257,7.4453 l 10.687,11.0976 h -5.418 l -9.223,-10.6406 h -1.062 v 10.6406 z m 57.351,0 V 11.1172 h 5.114 c 2.632,4.3047 5.32,9.0156 7.648,12.8125 1.422,2.4844 2.484,4.4609 4.055,7.6016 h 0.152 C 440.129,27.5781 440.027,25.5039 440.027,21.5 V 11.1172 h 4.258 v 24.5195 h -5.219 l -7.648,-12.6679 c -1.621,-2.836 -2.484,-4.5586 -3.953,-7.5469 l -0.152,0.0508 c 0.203,3.4961 0.253,5.9257 0.253,9.8281 v 10.3359 z m 61.242,0 V 11.1172 h 5.118 c 2.632,4.3047 5.32,9.0156 7.648,12.8125 1.422,2.4844 2.484,4.4609 4.055,7.6016 h 0.152 C 501.375,27.5781 501.273,25.5039 501.273,21.5 V 11.1172 h 4.254 v 24.5195 h -5.214 l -7.649,-12.6679 c -1.621,-2.836 -2.484,-4.5586 -3.957,-7.5469 l -0.148,0.0508 c 0.199,3.4961 0.25,5.9257 0.25,9.8281 v 10.3359 z m 3.852,9.9805 c 0.203,-3.4961 1.926,-6.2852 6.383,-6.2852 3.902,0 6.535,2.1289 6.738,6.2852 h -3.191 c -0.254,-2.2305 -1.27,-3.8555 -3.446,-3.8555 -2.027,0 -3.093,1.6758 -3.242,3.8555 z m 68.137,-9.9805 V 11.1172 H 561 v 20.9726 h 11.398 V 11.1172 h 4.457 v 24.5195 z m 71.074,0.5547 c -6.789,0 -12.156,-4.8125 -12.156,-13.0195 0,-7.75 5.117,-12.6133 11.75,-12.6133 5.929,0 12.211,3.9492 12.211,13.0195 0,7.4961 -4.762,12.6133 -11.805,12.6133 z m -0.102,-3.3437 c 5.266,0 7.348,-5.2696 7.348,-9.4258 0,-5.5156 -3.195,-9.5196 -7.449,-9.5196 -4.356,0 -7.445,4.0508 -7.445,9.4219 0,4.6602 2.277,9.5235 7.546,9.5235 z M 678.273,1.08203 h 4.411 V 14.4063 h 0.101 c 1.469,-2.4297 4.305,-3.8477 7.547,-3.8477 5.777,0 11.145,4.3555 11.145,13.1719 0,7.4453 -4.457,12.4609 -10.387,12.4609 -4,0 -6.887,-1.7734 -8.711,-4.7617 h -0.102 l -0.203,4.207 h -4.004 c 0.102,-2.3359 0.203,-4.8672 0.203,-8.0078 z m 4.411,24.21877 c 0,0.6055 0.148,1.2656 0.304,1.8242 0.86,3.3438 3.7,5.5195 6.735,5.5195 4.715,0 7.297,-4.2031 7.297,-9.1172 0,-5.621 -2.735,-9.4765 -7.45,-9.4765 -3.187,0 -5.875,2.1289 -6.687,5.2187 -0.098,0.5586 -0.199,1.168 -0.199,1.8282 z m 54.05,10.3359 v -3.5469 h 7.653 V 11.1172 h 4.406 v 20.9726 h 7.648 v 3.5469 z m 74.063,-24.5195 c -0.301,1.668 -0.406,3.7461 -0.406,5.875 v 9.168 c 0,4.914 -1.821,10.0312 -9.321,10.0312 -3.09,0 -6.027,-0.8633 -8.054,-2.1758 l 1.015,-2.9414 c 1.719,1.1133 4.102,1.8242 6.379,1.8242 5.02,0 5.574,-3.6484 5.574,-5.6718 v -0.5078 c -9.468,0.0507 -14.738,-3.1915 -14.738,-9.1211 0,-3.5469 2.531,-7.0391 7.496,-7.0391 3.496,0 6.129,1.7227 7.496,3.6445 h 0.157 l 0.351,-3.0859 z m -4.711,8.2539 c 0,-0.4531 -0.102,-0.9609 -0.254,-1.418 -0.707,-2.0742 -2.734,-4.1015 -5.926,-4.1015 -2.277,0 -4.207,1.3672 -4.207,4.2539 0,4.7617 5.524,5.625 10.387,5.5234 z m 46.352,16.2656 v -9.8789 c 0,-5.4765 -0.254,-8.918 -2.532,-10.5898 -0.609,-0.5078 -1.57,-0.8633 -2.429,-1.0117 l 0.453,-3.4961 c 2.281,0 3.648,0.5586 4.863,1.5195 3.191,2.0781 3.852,6.6875 3.852,13.5781 v 6.3828 h 8.41 V 11.1172 h 4.406 v 24.5195 h -17.023" /><path
         id="path28"
         style="fill:#008bc4;fill-opacity:1;fill-rule:nonzero;stroke:none"
         d="m 112.41,104.199 h 15.574 l -3.867,70.442 H 103.32 L 95.793,151.23 c -2.3008,-7.839 -4.7032,-17.14 -6.6914,-25.292 h -0.3125 c -1.5664,8.257 -3.7578,17.035 -5.9571,25.187 l -6.8945,23.516 H 54.7188 l -4.4922,-70.442 h 14.7343 l 1.2539,26.758 c 0.5235,8.777 0.836,19.645 1.2579,29.156 h 0.207 c 1.6719,-9.195 4.0742,-19.23 6.375,-27.484 l 7.5234,-27.277 h 12.4375 l 8.5704,27.484 c 2.719,8.258 5.641,18.289 7.84,27.277 h 0.312 c 0,-10.242 0.313,-20.484 0.629,-28.949 z m 71.801,42.746 h -25.922 v 14.633 h 27.488 v 13.063 h -43.476 v -70.442 h 44.941 v 13.067 h -28.953 v 16.718 h 25.922 z m 15.988,-42.433 c 3.973,-0.524 9.824,-1.043 18.082,-1.043 13.797,0 25.082,2.926 32.504,9.094 6.793,5.746 11.703,15.046 11.703,28.531 0,12.433 -4.597,21.109 -11.914,26.547 -6.793,5.121 -15.469,7.523 -28.844,7.523 -8.046,0 -15.679,-0.523 -21.531,-1.465 z m 15.992,57.797 c 1.36,0.312 3.661,0.629 7.211,0.629 13.692,0 22.262,-7.735 22.157,-22.368 0,-16.824 -9.407,-24.769 -23.829,-24.664 -1.988,0 -4.179,0 -5.539,0.313 v 46.09" /><path
         id="path30"
         style="fill:#ffffff;fill-opacity:1;fill-rule:nonzero;stroke:none"
         d="m 359.98,104.199 v 21.219 c 0,11.492 -0.21,21.422 -0.628,30.723 l 0.316,0.105 c 3.445,-8.258 8.047,-17.348 12.227,-24.875 l 15.05,-27.172 h 16.723 v 70.442 h -14.633 v -20.59 c 0,-10.555 0.309,-20.067 1.356,-29.367 h -0.313 c -3.133,7.945 -7.316,16.722 -11.496,24.14 l -14.633,25.817 h -18.601 v -70.442 z m 101.477,42.746 h -25.914 v 14.633 h 27.484 v 13.063 h -43.476 v -70.442 h 44.941 v 13.067 h -28.949 v 16.718 h 25.914 z m 45.57,-42.746 6.688,30.309 c 1.672,7.109 2.824,13.797 4.078,21.738 H 518 c 0.836,-8.047 1.984,-14.629 3.348,-21.738 l 5.953,-30.309 h 17.246 l 18.183,70.442 h -16.199 l -5.746,-28.844 c -1.465,-8.359 -3.031,-16.617 -4.078,-24.457 H 536.5 c -1.047,7.84 -2.195,15.363 -3.766,23.617 l -5.64,29.684 H 510.16 l -5.953,-28.844 c -1.777,-8.676 -3.453,-17.141 -4.598,-24.77 h -0.211 c -1.148,7.106 -2.613,16.2 -4.183,24.563 l -5.328,29.051 h -17.035 l 16.722,-70.442 z m 62.496,3.242 c 3.977,-2.195 11.918,-4.289 19.965,-4.289 19.332,0 28.426,10.036 28.426,21.844 0,9.93 -5.851,16.41 -18.289,21.008 -9.094,3.449 -13.066,5.434 -13.066,9.93 0,3.656 3.347,6.793 10.242,6.793 6.902,0 11.914,-1.985 14.738,-3.344 l 3.551,12.855 c -4.176,1.879 -10.031,3.555 -17.973,3.555 -16.617,0 -26.652,-9.199 -26.652,-21.219 0,-10.242 7.629,-16.722 19.336,-20.797 8.465,-3.031 11.808,-5.539 11.808,-9.929 0,-4.598 -3.867,-7.629 -11.183,-7.629 -6.789,0 -13.375,2.195 -17.66,4.39 l -3.243,-13.168" /><path
         id="path32"
         style="fill:#ffffff;fill-opacity:1;fill-rule:nonzero;stroke:none"
         d="m 757.898,102.758 v 13.062 h -25.605 v 0.211 l 6.27,5.223 c 9.824,8.781 18.082,17.875 18.082,29.266 0,12.332 -8.469,21.32 -23.829,21.32 -9.199,0 -17.14,-3.133 -22.261,-7 l 4.496,-11.395 c 3.551,2.719 8.672,5.645 14.523,5.645 7.84,0 11.184,-4.391 11.184,-9.93 -0.207,-7.941 -7.418,-15.57 -22.262,-28.844 l -8.777,-7.945 v -9.613 z m 52.989,0 v 16.199 h 8.152 v 11.914 h -8.152 v 39.817 h -19.442 l -25.711,-41.383 v -10.348 h 30.098 v -16.199 z m -30.309,28.113 v 0.211 l 9.094,14.84 c 2.297,4.285 4.074,8.254 6.269,12.648 h 0.418 c -0.316,-4.394 -0.527,-8.574 -0.527,-12.648 v -15.051 h -15.254" /></g></g></svg>