<?xml version="1.0" encoding="UTF-8" standalone="no"?>
<svg
   xmlns:dc="http://purl.org/dc/elements/1.1/"
   xmlns:cc="http://creativecommons.org/ns#"
   xmlns:rdf="http://www.w3.org/1999/02/22-rdf-syntax-ns#"
   xmlns:svg="http://www.w3.org/2000/svg"
   xmlns="http://www.w3.org/2000/svg"
   viewBox="0 0 14.666667 12"
   height="12"
   width="14.666667"
   xml:space="preserve"
   id="svg2"
   version="1.1"><metadata
     id="metadata8"><rdf:RDF><cc:Work
         rdf:about=""><dc:format>image/svg+xml</dc:format><dc:type
           rdf:resource="http://purl.org/dc/dcmitype/StillImage" /></cc:Work></rdf:RDF></metadata><defs
     id="defs6" /><g
     transform="matrix(1.3333333,0,0,-1.3333333,0,12)"
     id="g10"><g
       transform="scale(0.1)"
       id="g12"><path
         id="path14"
         style="fill:#656263;fill-opacity:1;fill-rule:evenodd;stroke:none"
         d="m 48.3516,43.4805 14.457,-0.0078 -0.043,-18.0899 -14.4453,0.0352 z m 3.8086,30.6992 -4.5899,-0.1016 -0.0742,-5.9843 4.625,-0.0235 0.0547,-4.6367 5.9258,-0.0156 0.0351,4.5976 4.6094,0.0742 0.0547,5.9688 -4.5781,0.0273 -0.1055,4.6094 -5.9336,0.0313 z M 89.2266,44.1484 c 1.0898,0.0118 4.0625,0.1563 4.9414,-0.1093 l 0.0039,-4.7344 c -0.9024,-0.2695 -3.836,-0.1133 -4.961,-0.1133 l -0.0039,0.2188 z m -7.6641,0.0079 4.9141,-0.0586 0.0039,-4.9024 -4.9375,-0.0039 z M 25.2109,39.1914 c 0,1.125 -0.1484,4.0664 0.1016,4.9688 l 4.8398,-0.0313 0.0118,-4.8281 C 29.2695,39.043 26.3242,39.1797 25.2109,39.1914 Z m -2.8281,0.0547 -4.7969,-0.0703 c -0.082,0.1289 -0.1132,0.0703 -0.1836,0.3867 -0.0117,0.0547 -0.0234,0.2422 -0.0273,0.3047 l 0.1172,4.3242 c 0.7969,0.1406 4.332,0.1875 5.0039,-0.0508 l 0.0508,-3.7968 c 0.0078,-0.879 0.0781,-0.7149 -0.1641,-1.0977 z m 66.8867,13.4805 c 0.2735,0.2187 -0.3281,0.1875 0.4571,0.1875 l 4.3398,-0.0821 c 0.3516,-0.4961 0.207,-1.6523 0.207,-2.5195 0,-0.8086 0.0821,-1.668 -0.082,-2.4609 -0.8242,-0.211 -1.7461,-0.1055 -2.5976,-0.1055 -0.5665,0 -2.0235,-0.2148 -2.3985,0.2109 z m -7.6132,-4.8477 c -0.2461,0.8516 -0.1563,3.9414 -0.0704,4.9453 1.3516,0.0196 3.6758,0.2539 4.7969,-0.0937 0.211,-0.6758 0.2344,-4.0157 -0.0039,-4.8477 z m -56.4141,4.9609 4.918,-0.1015 -0.0352,-4.8555 -4.9023,-0.0039 z M 17.543,52.7383 c 0.7851,0.207 3.9336,0.125 4.8906,0.0625 0.0859,-0.918 0.1562,-4.1289 -0.0586,-4.9258 l -4.8516,0.0469 z m 71.7304,8.4648 4.6914,-0.125 c 0.2344,0.4219 0.3711,-4.3945 0.1055,-4.6914 -0.293,-0.3359 -4.0039,-0.1445 -4.8555,-0.1484 z M 86.418,56.2734 c -0.6407,-0.0546 -4.5117,-0.1992 -4.7891,0.1094 -0.2812,0.3086 -0.1367,4.0664 -0.0664,4.8086 l 4.9141,-0.0234 z m -61.1485,4.9297 4.5782,-0.0703 c 0.0312,-0.0039 0.0937,-0.0781 0.1132,-0.043 0.2383,0.4297 0.3633,-4.414 0.1016,-4.707 -0.293,-0.3281 -4.0117,-0.1523 -4.8477,-0.1406 z m -7.75,-0.6093 c 0,0.6679 0.0352,0.5937 0.6914,0.6289 l 4.2071,-0.0391 -0.0117,-4.9219 -3.2344,-0.0195 c -2.0313,0 -1.6524,-0.8086 -1.6524,4.3516 z M 53.5,83.0547 C 60.5859,84.1094 66.3828,78.8164 67.1523,72.75 68.0664,65.5391 62.9805,59.9805 56.9727,59.0898 49.7539,58.0234 43.9297,63.2695 43.1367,69.4531 42.1953,76.793 47.332,82.1406 53.5,83.0547 Z M 6.39844,25.1484 V 18.0508 H 103.898 v 7.0976 l -5.3785,0.0274 c -0.0781,0.7773 0.1016,3.0586 0.1016,4.1133 0,5.8164 0.1992,36.4882 -0.0898,37.7773 -0.6133,2.7383 -2.8321,2.7031 -5.6915,2.7031 -2.7226,0 -15.1796,0.1407 -16.7617,-0.0468 L 76.0352,58.4141 c 0,-5.7383 0.3554,-31.1368 -0.3946,-33.2657 l -2.164,0.043 c -0.0547,1.2969 0.1054,3.2305 0.1054,4.7188 V 73.832 c 0,2.3282 0.4688,7.6953 -0.5351,9.3399 -1.3438,2.207 -5.0664,1.5859 -8.2422,1.582 L 45.3359,84.75 c -3.2148,0 -6.7929,0.6484 -8.1562,-1.6758 -0.8555,-1.457 -0.4649,-7.2773 -0.4649,-9.3984 l 0.1055,-48.5156 -2.1601,-0.0039 c -0.7266,2.0117 -0.3946,8.375 -0.3946,10.9843 0,2.8789 0.1172,32.1992 -0.0468,33.5821 -2.2227,0.2695 -5.9649,0.0468 -8.3516,0.0468 -15.6406,0 -13.707,1.3594 -13.707,-11.3554 0,-5.6055 0,-11.2149 0,-16.8243 L 12.2383,25.1523 6.39844,25.1484" /><path
         id="path16"
         style="fill:#fefefe;fill-opacity:1;fill-rule:evenodd;stroke:none"
         d="m 6.39844,2.65234 h 97.5 v 15.3984 h -97.5 z" /></g></g></svg>