<?xml version="1.0" encoding="UTF-8" standalone="no"?>
<svg
   xmlns:dc="http://purl.org/dc/elements/1.1/"
   xmlns:cc="http://creativecommons.org/ns#"
   xmlns:rdf="http://www.w3.org/1999/02/22-rdf-syntax-ns#"
   xmlns:svg="http://www.w3.org/2000/svg"
   xmlns="http://www.w3.org/2000/svg"
   viewBox="0 0 20 20"
   height="20"
   width="20"
   xml:space="preserve"
   id="svg2"
   version="1.1"><metadata
     id="metadata8"><rdf:RDF><cc:Work
         rdf:about=""><dc:format>image/svg+xml</dc:format><dc:type
           rdf:resource="http://purl.org/dc/dcmitype/StillImage" /></cc:Work></rdf:RDF></metadata><defs
     id="defs6" /><g
     transform="matrix(1.3333333,0,0,-1.3333333,0,20)"
     id="g10"><g
       transform="scale(0.1)"
       id="g12"><path
         id="path14"
         style="fill:#1171af;fill-opacity:1;fill-rule:evenodd;stroke:none"
         d="m 76.1758,138.617 c 36.1952,0 65.5352,-29.34 65.5352,-65.5311 0,-36.1953 -29.34,-65.53512 -65.5352,-65.53512 -36.1914,0 -65.5313,29.33982 -65.5313,65.53512 0,36.1911 29.3399,65.5311 65.5313,65.5311 z M 4.35156,77.0313 C 4.35156,54.1914 9.31641,37.9531 25.418,21.8594 30.8594,16.4141 37.6094,11.2539 44.9961,7.73047 94.9922,-16.0898 148.805,23.4922 148.805,69.0039 v 8.0274 c 0,35.0427 -34.043,68.2107 -69.0159,68.2107 -23.5899,0 -39.6368,-6.324 -54.3711,-21.062 C 15.6523,114.418 4.35156,96.1406 4.35156,77.0313" /><path
         id="path16"
         style="fill:#1171af;fill-opacity:1;fill-rule:evenodd;stroke:none"
         d="M 85.9688,92.8867 78.5742,70.9258 92.207,48.1328 c 0.1211,-0.2031 0.2188,-0.4297 0.293,-0.6719 0.2305,-0.5156 0.2891,-1.1093 0.1367,-1.6796 -0.0625,-0.4493 -0.2109,-0.8516 -0.4531,-1.1407 L 83.9414,24.9766 C 83.4023,23.6914 81.9141,23.082 80.625,23.6211 l -0.6406,0.2617 c -1.2891,0.5352 -1.8906,2.0352 -1.3516,3.3203 L 86.6133,46.2656 74.6758,66.2109 52.875,53.1758 c -0.207,-0.125 -0.4414,-0.2266 -0.6914,-0.3008 -0.5117,-0.2187 -1.0898,-0.2773 -1.6563,-0.125 -0.4453,0.0625 -0.8554,0.2109 -1.1484,0.4531 l -19.6562,8.25 c -1.2891,0.5352 -1.8985,2.0274 -1.3594,3.3164 l 0.2656,0.6368 c 0.5352,1.2851 2.0352,1.8945 3.3203,1.3554 L 51.0078,58.7656 72.7891,71.793 80.6289,95.0938 72.3203,98.5273 61.5234,87.9023 59.1172,76.4453 C 58.832,75.0859 57.4727,74.1992 56.1133,74.4844 l -0.6797,0.1367 c -1.3555,0.2852 -2.2422,1.6406 -1.957,3.0117 l 2.5664,12.1875 c 0.0664,0.5547 0.3125,1.082 0.7383,1.5 L 69.8555,104.18 c 0.8867,0.875 2.2695,0.961 3.2539,0.254 l 10.8828,-4.4965 c -2.4024,1.4965 -4,4.1605 -4,7.1955 0,4.676 3.7969,8.472 8.4726,8.472 4.6797,0 8.4727,-3.796 8.4727,-8.472 0,-4.68 -3.793,-8.4728 -8.4727,-8.4728 -0.6601,0 -1.2968,0.0742 -1.9062,0.2148 l 13.4534,-5.5586 8.855,8.7036 c 0.992,0.984 2.602,0.968 3.582,-0.028 l 0.485,-0.488 c 0.98,-0.992 0.964,-2.6134 -0.028,-3.586 L 102.543,87.7227 c -0.25,-0.2422 -0.539,-0.4219 -0.844,-0.5391 v -0.0039 l -0.117,-0.043 v -0.0039 l -0.055,-0.0117 v -0.0039 l -0.058,-0.0156 V 87.0977 L 101.41,87.082 h -0.004 l -0.054,-0.0156 h -0.004 l -0.059,-0.0117 -0.059,-0.0117 v 0 l -0.062,-0.0117 -0.18,-0.0235 v 0 c -0.41,-0.043 -0.828,0.0117 -1.2302,0.1797 z m 2.4023,18.6723 c 2.3789,0 4.3008,-1.926 4.3008,-4.301 0,-2.379 -1.9219,-4.309 -4.3008,-4.309 -2.375,0 -4.3047,1.93 -4.3047,4.309 0,2.375 1.9297,4.301 4.3047,4.301" /></g></g></svg>