<?xml version="1.0" encoding="UTF-8" standalone="no"?>
<svg
   xmlns:dc="http://purl.org/dc/elements/1.1/"
   xmlns:cc="http://creativecommons.org/ns#"
   xmlns:rdf="http://www.w3.org/1999/02/22-rdf-syntax-ns#"
   xmlns:svg="http://www.w3.org/2000/svg"
   xmlns="http://www.w3.org/2000/svg"
   viewBox="0 0 21.333332 20"
   height="20"
   width="21.333332"
   xml:space="preserve"
   id="svg2"
   version="1.1"><metadata
     id="metadata8"><rdf:RDF><cc:Work
         rdf:about=""><dc:format>image/svg+xml</dc:format><dc:type
           rdf:resource="http://purl.org/dc/dcmitype/StillImage" /></cc:Work></rdf:RDF></metadata><defs
     id="defs6" /><g
     transform="matrix(1.3333333,0,0,-1.3333333,0,20)"
     id="g10"><g
       transform="scale(0.1)"
       id="g12"><path
         id="path14"
         style="fill:#57abdb;fill-opacity:1;fill-rule:evenodd;stroke:none"
         d="m 74.3555,62.9492 c 0.9922,0.0703 17.9297,6.0469 19.1562,6.8399 3.9414,-5.7383 4.8008,-3.0157 -11.9414,-14.5196 -2.0195,-1.3906 -4.0273,3.0391 -7.2148,7.6797 z M 55.4102,73.6289 c 10.9179,-15.8867 8.7343,-14.4766 12.5546,-13.0273 1.5391,0.582 2.4258,0.6093 3.8321,1.3789 9.4297,-13.7227 7.4609,-11.4649 24.3867,0.164 3.5156,2.418 1.5898,5.1953 -0.1875,7.7774 3.207,2.2031 5.9099,2.125 8.9919,3.8047 L 83.2344,105.387 55.4102,73.6289" /><path
         id="path16"
         style="fill:#57abdb;fill-opacity:1;fill-rule:evenodd;stroke:none"
         d="m 82.707,108.973 25.07,-36.4886 c 0.766,-0.0625 2.578,-0.5977 2.86,-0.4063 2.043,1.4024 2.203,3.3594 0.484,5.8672 L 89,110.137 c -2.3906,3.48 -5.0156,3.25 -6.293,-1.164" /><path
         id="path18"
         style="fill:#57abdb;fill-opacity:1;fill-rule:evenodd;stroke:none"
         d="m 51.3398,72.125 v 0 c 1.4844,0.9336 3.4649,0.4844 4.4024,-1.0039 L 62.9883,59.582 c 0.9375,-1.4882 0.4844,-3.4648 -1.0039,-4.4023 v 0 c -1.4883,-0.9336 -3.4649,-0.4844 -4.4024,1.0039 l -7.2461,11.543 c -0.9375,1.4882 -0.4843,3.4609 1.0039,4.3984" /><path
         id="path20"
         style="fill:#97d7fc;fill-opacity:1;fill-rule:evenodd;stroke:none"
         d="m 78.1992,147.641 c 40.1558,0 72.7068,-32.551 72.7068,-72.7074 0,-40.1563 -32.551,-72.71094 -72.7068,-72.71094 -40.1562,0 -72.70701,32.55464 -72.70701,72.71094 0,40.1564 32.55081,72.7074 72.70701,72.7074 z m -0.2187,-3.106 c 38.4215,0 69.5665,-31.144 69.5665,-69.5662 0,-38.418 -31.145,-69.56255 -69.5665,-69.56255 -38.4219,0 -69.56644,31.14455 -69.56644,69.56255 0,38.4222 31.14454,69.5662 69.56644,69.5662" /></g></g></svg>