<?xml version="1.0" encoding="UTF-8" standalone="no"?>
<svg
   xmlns:dc="http://purl.org/dc/elements/1.1/"
   xmlns:cc="http://creativecommons.org/ns#"
   xmlns:rdf="http://www.w3.org/1999/02/22-rdf-syntax-ns#"
   xmlns:svg="http://www.w3.org/2000/svg"
   xmlns="http://www.w3.org/2000/svg"
   viewBox="0 0 20 20"
   height="20"
   width="20"
   xml:space="preserve"
   id="svg2"
   version="1.1"><metadata
     id="metadata8"><rdf:RDF><cc:Work
         rdf:about=""><dc:format>image/svg+xml</dc:format><dc:type
           rdf:resource="http://purl.org/dc/dcmitype/StillImage" /></cc:Work></rdf:RDF></metadata><defs
     id="defs6" /><g
     transform="matrix(1.3333333,0,0,-1.3333333,0,20)"
     id="g10"><g
       transform="scale(0.1)"
       id="g12"><path
         id="path14"
         style="fill:#1b1b1f;fill-opacity:1;fill-rule:evenodd;stroke:none"
         d="m 64.6953,30.9336 c 1.5235,7.3633 4.4531,16.0352 6.5547,23.6719 5.5273,0.164 7.4453,0.5859 10.6484,4.7617 2.5039,3.2617 3.8282,5.9414 5.2305,10.3711 2.0859,6.5859 3.4727,21.3047 -4.7851,23.2539 0.5976,4.3437 1.9687,8.1638 3.2109,12.4028 1.0586,3.617 2.1601,8.859 3.3711,11.863 C 100.18,115.527 103.535,107.949 103.512,94.3477 103.484,77.1328 95.6211,48.8828 84.2383,36.2461 82.8438,34.6953 81.3047,32.8359 79.2031,31.4922 75.0391,28.832 68.1484,28.8633 64.6953,30.9336 Z M 86.4258,119.867 C 87.4375,116.258 80.6797,93.9414 79.4297,93.0898 76.5039,92.0742 70.5,94.1406 68.75,95.3711 c -1.2422,3.0469 0.543,6.4919 1.3438,9.5629 0.8437,3.238 1.8085,6.214 2.6914,9.488 1.3632,5.047 1.0507,12.422 13.6406,5.445 z M 58.3516,60.1016 c 1.5937,0.9101 7.7656,-0.6407 9.3086,-1.4024 3.3906,-1.6758 1.0234,-6.3437 0.1484,-9.289 -0.9023,-3.0274 -4.0391,-17.0274 -5.7734,-18.3164 -1.5743,-1.1719 -7.9844,0.7187 -9.4493,1.4179 -3.8476,1.8321 0.4727,11.7227 2.4454,18.6446 1.2695,4.4453 1.3632,7.4726 3.3203,8.9453" /><path
         id="path16"
         style="fill:#000000;fill-opacity:1;fill-rule:evenodd;stroke:none"
         d="m 76.4063,141.18 c 36.1957,0 65.5347,-29.34 65.5347,-65.5316 0,-36.1953 -29.339,-65.5351 -65.5347,-65.5351 -36.1915,0 -65.5313,29.3398 -65.5313,65.5351 0,36.1916 29.3398,65.5316 65.5313,65.5316 z M 4.58203,79.5938 c 0,-22.8399 4.96485,-39.0743 21.06637,-55.1719 5.4414,-5.4414 12.1914,-10.6055 19.5782,-14.125 49.9961,-23.8242 103.8084,15.7617 103.8084,61.2695 v 8.0274 c 0,35.0432 -34.043,68.2152 -69.0155,68.2152 -23.5898,0 -39.6367,-6.329 -54.3711,-21.067 C 15.8828,116.98 4.58203,98.7031 4.58203,79.5938" /></g></g></svg>