<?xml version="1.0" encoding="UTF-8" standalone="no"?>
<svg
   xmlns:dc="http://purl.org/dc/elements/1.1/"
   xmlns:cc="http://creativecommons.org/ns#"
   xmlns:rdf="http://www.w3.org/1999/02/22-rdf-syntax-ns#"
   xmlns:svg="http://www.w3.org/2000/svg"
   xmlns="http://www.w3.org/2000/svg"
   viewBox="0 0 13.333333 17.333332"
   height="17.333332"
   width="13.333333"
   xml:space="preserve"
   id="svg2"
   version="1.1"><metadata
     id="metadata8"><rdf:RDF><cc:Work
         rdf:about=""><dc:format>image/svg+xml</dc:format><dc:type
           rdf:resource="http://purl.org/dc/dcmitype/StillImage" /></cc:Work></rdf:RDF></metadata><defs
     id="defs6" /><g
     transform="matrix(1.3333333,0,0,-1.3333333,0,17.333333)"
     id="g10"><g
       transform="scale(0.1)"
       id="g12"><path
         id="path14"
         style="fill:#c1c1c1;fill-opacity:1;fill-rule:evenodd;stroke:none"
         d="M 48.7695,56.3203 H 45.7617 C 35.2539,56.3203 24.75,66.3984 24.75,76.7422 v 3.6016 c 0,10.1757 10.2891,20.4142 20.4141,20.4142 h 3.6054 c 17.5039,0 28.3516,-22.8557 14.8438,-37.6603 C 60.4688,59.6484 54.043,56.3203 48.7695,56.3203 Z M 2.53516,80.9453 V 76.7422 C 2.53516,65.793 16.3125,44.9414 21.5,37.4648 25.625,31.5117 29.6484,26.293 34.0938,20.6367 35.7109,18.582 45.6523,5.96094 47.5625,4.68359 49.3008,5.84375 59.4336,18.5703 60.7813,20.2969 c 9.371,12.0039 31.8203,41.6875 31.8203,56.4453 0,14.2109 -3.4922,21.7539 -13.0547,31.3748 -6.3828,6.414 -18.4141,12.457 -28.375,12.457 -8.9336,0 -14.7305,0.039 -23.0352,-3.992 -5.3828,-2.613 -8.2656,-4.141 -12.2461,-8.164 C 12.0977,104.594 9.51172,102.125 6.92578,96.9688 4.75781,92.6523 2.53516,87.1094 2.53516,80.9453" /></g></g></svg>