<?xml version="1.0" encoding="UTF-8" standalone="no"?>
<svg
   xmlns:dc="http://purl.org/dc/elements/1.1/"
   xmlns:cc="http://creativecommons.org/ns#"
   xmlns:rdf="http://www.w3.org/1999/02/22-rdf-syntax-ns#"
   xmlns:svg="http://www.w3.org/2000/svg"
   xmlns="http://www.w3.org/2000/svg"
   viewBox="0 0 20 18.666668"
   height="18.666668"
   width="20"
   xml:space="preserve"
   id="svg2"
   version="1.1"><metadata
     id="metadata8"><rdf:RDF><cc:Work
         rdf:about=""><dc:format>image/svg+xml</dc:format><dc:type
           rdf:resource="http://purl.org/dc/dcmitype/StillImage" /></cc:Work></rdf:RDF></metadata><defs
     id="defs6" /><g
     transform="matrix(1.3333333,0,0,-1.3333333,0,18.666667)"
     id="g10"><g
       transform="scale(0.1)"
       id="g12"><path
         id="path14"
         style="fill:#77c7f7;fill-opacity:1;fill-rule:evenodd;stroke:none"
         d="m 9.65234,4.52344 h 132.883 v 132.883 H 9.65234 Z" /><path
         id="path16"
         style="fill:#ffffff;fill-opacity:1;fill-rule:evenodd;stroke:none"
         d="m 59.3984,84.9531 c -6.7734,-8.875 -3.957,-18.8906 2.5586,-25.2812 7.6368,-6.0196 19.4883,-4.4727 25.0508,2.7617 0.4414,0.5742 0.7422,0.6367 1.1367,1.1992 1.4961,2.0938 2.4297,5.1094 2.8282,7.8086 2.8046,19.2891 -19.8555,26.1719 -31.5743,13.5117 z M 92.2148,61.6523 110.613,42.957 c -0.738,-1.0273 -2.281,-1.914 -3.297,-3.1914 -0.355,-0.4453 -0.246,-0.4453 -0.726,-0.9179 -0.746,-0.7188 -1.945,-1.8946 -2.809,-2.2383 -0.14,0.1719 -0.238,0.2656 -0.426,0.457 L 85.5156,54.8555 C 83.207,54.1016 81.4727,52.6328 78.2617,51.9023 71.7383,50.4453 62.9727,52.2617 58.1953,57 c -10.1328,10.0586 -10.3359,26.1289 2.043,34.7773 3.5195,2.4375 6.6523,3.7969 11.3945,4.1836 4.0586,0.3321 9.586,-0.9179 12.8477,-2.7421 8.3867,-4.7071 12.6523,-14.754 10.7109,-24.1641 -0.5976,-2.8984 -1.3789,-4.9727 -2.9766,-7.4024" /></g></g></svg>