<?xml version="1.0" encoding="UTF-8" standalone="no"?>
<svg
   xmlns:dc="http://purl.org/dc/elements/1.1/"
   xmlns:cc="http://creativecommons.org/ns#"
   xmlns:rdf="http://www.w3.org/1999/02/22-rdf-syntax-ns#"
   xmlns:svg="http://www.w3.org/2000/svg"
   xmlns="http://www.w3.org/2000/svg"
   viewBox="0 0 17.333332 20"
   height="20"
   width="17.333332"
   xml:space="preserve"
   id="svg2"
   version="1.1"><metadata
     id="metadata8"><rdf:RDF><cc:Work
         rdf:about=""><dc:format>image/svg+xml</dc:format><dc:type
           rdf:resource="http://purl.org/dc/dcmitype/StillImage" /></cc:Work></rdf:RDF></metadata><defs
     id="defs6" /><g
     transform="matrix(1.3333333,0,0,-1.3333333,0,20)"
     id="g10"><g
       transform="scale(0.1)"
       id="g12"><path
         id="path14"
         style="fill:#42c0fb;fill-opacity:1;fill-rule:evenodd;stroke:none"
         d="m 18.1758,84.9141 c 0,9.789 3.0312,20.4809 8.0273,27.7739 l 5.3203,6.796 c 3.375,3.649 8.7657,7.864 13.4414,10.239 24.9805,12.718 54.9415,2.543 67.3982,-22.223 C 124.602,83.1602 114.246,52.0234 88.1172,40.3086 66.4648,30.5977 41.0742,37.7031 27.5391,56.8242 22.043,64.5938 18.1758,74.4375 18.1758,84.9141 Z m -8.81252,0.5547 c 0,-5.1329 1.02342,-11.543 2.12892,-15.4961 2.2266,-7.9532 6.5781,-17.2618 12.3281,-22.9219 l 8.5352,-9.0899 C 35.2148,35.1016 65.3906,4.42578 67.7461,2.84766 L 102.309,37.6875 c 6.171,6.1758 11.625,10.8555 16.086,18.6133 10.078,17.5312 9.96,36.1523 2.156,54.4332 -1.742,4.082 -8.602,14.024 -11.965,16.676 -7.137,5.633 -7.426,7.106 -17.1641,11.477 -19.5821,8.785 -44.6758,5.414 -60.7031,-8.684 C 23.9766,124.277 18.4141,117.926 14.707,109.313 11.9648,102.941 9.36328,94.2969 9.36328,85.4688" /><path
         id="path16"
         style="fill:#ffffff;fill-opacity:1;fill-rule:evenodd;stroke:none"
         d="m 67.6875,135.191 c 27.3867,0 49.5855,-22.203 49.5855,-49.5894 0,-27.3868 -22.1988,-49.586 -49.5855,-49.586 -27.3867,0 -49.5898,22.1992 -49.5898,49.586 0,27.3864 22.2031,49.5894 49.5898,49.5894" /><path
         id="path18"
         style="fill:#42c0fb;fill-opacity:1;fill-rule:nonzero;stroke:none"
         d="M 63.6836,61.1094 V 82.2539 H 42.6445 v 8.8438 h 21.0391 v 21.0393 h 8.9492 V 91.0977 H 93.6719 V 82.2539 H 72.6328 V 61.1094 h -8.9492" /></g></g></svg>