<?xml version="1.0" encoding="UTF-8" standalone="no"?>
<svg
   xmlns:dc="http://purl.org/dc/elements/1.1/"
   xmlns:cc="http://creativecommons.org/ns#"
   xmlns:rdf="http://www.w3.org/1999/02/22-rdf-syntax-ns#"
   xmlns:svg="http://www.w3.org/2000/svg"
   xmlns="http://www.w3.org/2000/svg"
   viewBox="0 0 21.333332 20"
   height="20"
   width="21.333332"
   xml:space="preserve"
   id="svg2"
   version="1.1"><metadata
     id="metadata8"><rdf:RDF><cc:Work
         rdf:about=""><dc:format>image/svg+xml</dc:format><dc:type
           rdf:resource="http://purl.org/dc/dcmitype/StillImage" /></cc:Work></rdf:RDF></metadata><defs
     id="defs6" /><g
     transform="matrix(1.3333333,0,0,-1.3333333,0,20)"
     id="g10"><g
       transform="scale(0.1)"
       id="g12"><path
         id="path14"
         style="fill:#57abdb;fill-opacity:1;fill-rule:evenodd;stroke:none"
         d="M 45.0273,95.7461 V 60.4883 c 0,-1.5195 0.6094,-3.0469 1.0938,-4.168 0.6406,-1.4726 2.2578,-3.2695 3.6016,-4.2226 1.5586,-1.1055 3.7812,-2.1289 5.8242,-2.1289 h 43.2226 c 3.2345,0 7.3825,2.332 9.7735,4.7265 0.664,0.6602 1.133,1.0781 1.707,1.8516 0.566,0.7617 0.965,1.3906 1.41,2.2812 0.957,1.9141 1.141,3.3594 1.602,5.6524 0.129,0.6289 4.562,23.5703 4.562,24.582 0,4.082 -0.687,6.0781 -3.664,8.707 -0.34,0.293 -0.851,0.6328 -1.265,0.8633 -1.239,0.6875 -2.551,1.1992 -4.032,1.3792 -0.336,0.043 -0.152,-0.0354 -0.484,0.078 -0.738,0.254 -0.766,1.668 -3.371,3.742 -0.828,0.656 -1.59,1.172 -2.664,1.602 -0.86,0.347 -2.344,0.832 -3.5745,0.832 H 55.5469 c -3.6524,0 -7.9883,-3.059 -9.4258,-6.3558 -0.4648,-1.0625 -1.0938,-2.7266 -1.0938,-4.1641 z m 32.7852,-3.418 c 0,-1.5586 -0.2852,-3.8359 2.7031,-3.8359 h 13.7891 c 1.4101,0 2.5586,1.1719 2.5586,2.1289 0,1.293 0.1953,3.6992 -2.2774,3.6992 H 79.8047 c -0.8867,0 -1.9922,-1.1055 -1.9922,-1.9922 z m 0,-11.9453 c 0,-1.289 -0.1836,-2.414 0.7461,-3.2344 0.4258,-0.3711 1.1875,-0.6015 1.957,-0.6015 h 13.6446 c 2.7695,0 2.7031,2.0429 2.7031,3.5547 0,1.2851 -0.9883,2.2773 -2.2774,2.2773 h -14.5 c -1.1093,0 -2.2734,-0.9453 -2.2734,-1.9961 z M 56.3438,66.168 c 0,-1.4063 0.121,-3.4102 2.414,-3.4102 h 35.6914 c 2.5391,0 2.4141,2.25 2.4141,3.5508 0,1.3203 -1.1055,2.2734 -2.4141,2.2734 H 58.7578 c -1.3633,0 -2.414,-1.0312 -2.414,-2.414 z m 0.1406,25.164 V 80.1016 c 0,-1.9532 1.6054,-3.4141 3.5547,-3.4141 h 10.8086 c 0.7031,0 1.4492,0.2969 1.9648,0.7383 0.0547,0.0508 0.1523,0.1367 0.2266,0.2031 0.8164,0.7578 1.2187,1.6211 1.2187,3.043 v 9.8047 c 0,1.1992 -0.3437,2.1015 -0.9062,2.7929 -0.4571,0.5586 -1.5508,1.1914 -2.5039,1.1914 H 59.7578 c -1.5781,0 -3.2734,-1.5546 -3.2734,-3.1289 z m 0.6445,9 H 97.707 c 3.719,0 6.762,-3.0429 6.762,-6.7617 V 62.3516 c 0,-3.7149 -3.043,-6.7578 -6.762,-6.7578 H 57.1289 c -3.7148,0 -6.7578,3.039 -6.7578,6.7578 v 31.2187 c 0,3.7188 3.0391,6.7617 6.7578,6.7617" /><path
         id="path16"
         style="fill:#97d7fc;fill-opacity:1;fill-rule:evenodd;stroke:none"
         d="m 79.6406,149.133 c 40.1564,0 72.7074,-32.555 72.7074,-72.7072 0,-40.1563 -32.551,-72.71096 -72.7074,-72.71096 -40.1562,0 -72.71091,32.55466 -72.71091,72.71096 0,40.1522 32.55471,72.7072 72.71091,72.7072 z m -0.2187,-3.106 c 38.4221,0 69.5661,-31.144 69.5661,-69.5661 C 148.988,38.0391 117.844,6.89453 79.4219,6.89453 41,6.89453 9.85547,38.0391 9.85547,76.4609 9.85547,114.883 41,146.027 79.4219,146.027" /></g></g></svg>