<?xml version="1.0" encoding="UTF-8" standalone="no"?>
<svg
   xmlns:dc="http://purl.org/dc/elements/1.1/"
   xmlns:cc="http://creativecommons.org/ns#"
   xmlns:rdf="http://www.w3.org/1999/02/22-rdf-syntax-ns#"
   xmlns:svg="http://www.w3.org/2000/svg"
   xmlns="http://www.w3.org/2000/svg"
   viewBox="0 0 20 18.666668"
   height="18.666668"
   width="20"
   xml:space="preserve"
   id="svg2"
   version="1.1"><metadata
     id="metadata8"><rdf:RDF><cc:Work
         rdf:about=""><dc:format>image/svg+xml</dc:format><dc:type
           rdf:resource="http://purl.org/dc/dcmitype/StillImage" /></cc:Work></rdf:RDF></metadata><defs
     id="defs6" /><g
     transform="matrix(1.3333333,0,0,-1.3333333,0,18.666667)"
     id="g10"><g
       transform="scale(0.1)"
       id="g12"><path
         id="path14"
         style="fill:#f67e00;fill-opacity:1;fill-rule:evenodd;stroke:none"
         d="m 9.65234,0.238281 h 132.883 V 133.11728 H 9.65234 Z" /><path
         id="path16"
         style="fill:#ffffff;fill-opacity:1;fill-rule:evenodd;stroke:none"
         d="m 76.7617,96.5586 c 2.125,0.8086 1.3906,3.4062 1.3906,6.0464 5.3204,-0.226 10.0938,-1.542 14.3243,-3.4956 3.9062,-1.8125 7.1992,-4.3555 10.1324,-7.3164 6.782,-6.8555 9.993,-14.2188 10.715,-24.3672 -1.847,0 -5.941,0.6523 -5.867,-1.3906 0.074,-1.918 3.957,-1.2969 5.637,-1.2969 0.836,-3.9336 -2.508,-15.1875 -4.895,-16.75 -0.285,-1.8867 -3.617,-5.8399 -4.937,-7.2461 -5.8714,-6.2344 -15.5003,-11.082 -25.1136,-11.1758 0,2.1289 0.2305,4.0508 -0.4414,5.7734 l -1.9023,-0.207 c -0.5469,-1.4336 -0.3438,-3.7734 -0.3438,-5.6133 -15.2812,0.7266 -26.125,9.3125 -31.9843,21.3399 -1.4961,3.0703 -3.6055,10.0429 -3.1485,13.8359 3.0313,0.1719 5.875,-1.039 5.6641,2.1563 -1.625,1.0156 -3.4414,0.4023 -5.8008,0.6953 1.0625,19.0312 15.8945,34.4801 35.2695,35.0581 0,-1.25 -0.0742,-2.7144 -0.0312,-3.9331 0.0625,-1.5 0.0078,-1.836 1.332,-2.1133 z m -3.5781,8.5974 C 52.5859,103.219 35.3359,85.168 37.6797,62.0781 39.7344,41.7578 57.7656,24.7656 80.6211,26.9727 101.07,28.9492 117.965,47.1563 115.855,69.7539 113.953,90.0938 95.8672,107.281 73.1836,105.156" /><path
         id="path18"
         style="fill:none;stroke:#ffffff;stroke-width:2.16000009;stroke-linecap:butt;stroke-linejoin:miter;stroke-miterlimit:22.92560005;stroke-dasharray:none;stroke-opacity:1"
         d="m 76.7617,96.5586 c 2.125,0.8086 1.3906,3.4062 1.3906,6.0464 5.3204,-0.226 10.0938,-1.542 14.3243,-3.4956 3.9062,-1.8125 7.1992,-4.3555 10.1324,-7.3164 6.782,-6.8555 9.993,-14.2188 10.715,-24.3672 -1.847,0 -5.941,0.6523 -5.867,-1.3906 0.074,-1.918 3.957,-1.2969 5.637,-1.2969 0.836,-3.9336 -2.508,-15.1875 -4.895,-16.75 -0.285,-1.8867 -3.617,-5.8399 -4.937,-7.2461 -5.8714,-6.2344 -15.5003,-11.082 -25.1136,-11.1758 0,2.1289 0.2305,4.0508 -0.4414,5.7734 l -1.9023,-0.207 c -0.5469,-1.4336 -0.3438,-3.7734 -0.3438,-5.6133 -15.2812,0.7266 -26.125,9.3125 -31.9843,21.3399 -1.4961,3.0703 -3.6055,10.0429 -3.1485,13.8359 3.0313,0.1719 5.875,-1.039 5.6641,2.1563 -1.625,1.0156 -3.4414,0.4023 -5.8008,0.6953 1.0625,19.0312 15.8945,34.4801 35.2695,35.0581 0,-1.25 -0.0742,-2.7144 -0.0312,-3.9331 0.0625,-1.5 0.0078,-1.836 1.332,-2.1133 z m -3.5781,8.5974 C 52.5859,103.219 35.3359,85.168 37.6797,62.0781 39.7344,41.7578 57.7656,24.7656 80.6211,26.9727 101.07,28.9492 117.965,47.1563 115.855,69.7539 113.953,90.0938 95.8672,107.281 73.1836,105.156 Z" /><path
         id="path20"
         style="fill:#ffffff;fill-opacity:1;fill-rule:evenodd;stroke:none"
         d="m 101.227,52.3789 c 0.371,1.8633 -0.383,2.0664 -1.8129,2.8047 -1.1602,0.6055 -1.9375,1.0273 -3.1368,1.6992 l -18.1289,10.082 c 0,3.0313 0,6.0586 0,9.0977 0,6.5391 0.8438,7.7617 -2.0351,7.8867 -1.1758,-1.9375 -0.6524,-5.8945 -0.6524,-8.6328 0,-3.0156 -0.2187,-6.9531 0.0899,-9.8555 0.2695,-0.5937 16.3281,-9.3242 18.9687,-10.7148 1.7227,-0.9102 4.8125,-3.4609 6.7075,-2.3672" /><path
         id="path22"
         style="fill:none;stroke:#ffffff;stroke-width:2.16000009;stroke-linecap:butt;stroke-linejoin:miter;stroke-miterlimit:22.92560005;stroke-dasharray:none;stroke-opacity:1"
         d="m 101.227,52.3789 c 0.371,1.8633 -0.383,2.0664 -1.8129,2.8047 -1.1602,0.6055 -1.9375,1.0273 -3.1368,1.6992 l -18.1289,10.082 c 0,3.0313 0,6.0586 0,9.0977 0,6.5391 0.8438,7.7617 -2.0351,7.8867 -1.1758,-1.9375 -0.6524,-5.8945 -0.6524,-8.6328 0,-3.0156 -0.2187,-6.9531 0.0899,-9.8555 0.2695,-0.5937 16.3281,-9.3242 18.9687,-10.7148 1.7227,-0.9102 4.8125,-3.4609 6.7075,-2.3672 z" /></g></g></svg>