<?xml version="1.0" encoding="UTF-8" standalone="no"?>
<svg
   xmlns:dc="http://purl.org/dc/elements/1.1/"
   xmlns:cc="http://creativecommons.org/ns#"
   xmlns:rdf="http://www.w3.org/1999/02/22-rdf-syntax-ns#"
   xmlns:svg="http://www.w3.org/2000/svg"
   xmlns="http://www.w3.org/2000/svg"
   viewBox="0 0 21.333332 20"
   height="20"
   width="21.333332"
   xml:space="preserve"
   id="svg2"
   version="1.1"><metadata
     id="metadata8"><rdf:RDF><cc:Work
         rdf:about=""><dc:format>image/svg+xml</dc:format><dc:type
           rdf:resource="http://purl.org/dc/dcmitype/StillImage" /></cc:Work></rdf:RDF></metadata><defs
     id="defs6" /><g
     transform="matrix(1.3333333,0,0,-1.3333333,0,20)"
     id="g10"><g
       transform="scale(0.1)"
       id="g12"><path
         id="path14"
         style="fill:#1171af;fill-opacity:1;fill-rule:evenodd;stroke:none"
         d="m 67.6523,110.109 c -20.3476,-2.203 -18.0742,-5.82 -18.0742,-38.3902 0,-4.3399 -0.2461,-9.875 0.0469,-14.0899 0.5352,-7.7226 4.832,-6.3242 6.8164,-6.9961 0.1133,-3.3164 -0.2969,-8.8437 4.7383,-8.9062 4.6875,-0.0547 4.4219,4.0351 4.8203,8.6523 l 23.2891,-0.0351 c -0.5899,-7.2618 1.6328,-9.4454 5.0742,-9.1094 5.6797,-0.1758 4.3515,6.6797 4.6289,9.4453 2.2738,0.2656 8.2268,-0.8477 8.5858,2.9883 0.281,12.7226 -0.019,22.1875 0.02,34.5781 0.058,18.9609 0.23,19.2809 -16.5003,22.1599 -0.3907,1.571 -0.4141,3.785 -2.3477,6.055 l -18.7539,-0.016 c -2.0039,-2.617 -1.3672,-3.41 -2.3438,-6.336 z M 67.0898,63.1758 H 88.5 V 61.4727 H 67.0898 Z m 26.8438,2.1289 c 1.8828,0 3.4062,-1.5274 3.4062,-3.4063 0,-1.8828 -1.5234,-3.4101 -3.4062,-3.4101 -1.8789,0 -3.4063,1.5273 -3.4063,3.4101 0,1.8789 1.5274,3.4063 3.4063,3.4063 z m -32.5977,0.5351 c 1.8829,0 3.4102,-1.5273 3.4102,-3.4062 0,-1.8828 -1.5273,-3.4102 -3.4102,-3.4102 -1.8789,0 -3.4062,1.5274 -3.4062,3.4102 0,1.8789 1.5273,3.4062 3.4062,3.4062 z M 59.582,100.242 h 38.3477 c 1.5859,0 2.8793,-1.2928 2.8793,-2.8748 V 82.7734 c 0,-1.5859 -1.2934,-2.875 -2.8793,-2.875 H 59.582 c -1.582,0 -2.8711,1.2891 -2.8711,2.875 v 14.5938 c 0,1.582 1.2891,2.8748 2.8711,2.8748" /><path
         id="path16"
         style="fill:#1171af;fill-opacity:1;fill-rule:evenodd;stroke:none"
         d="m 78.3281,142.145 c 36.1949,0 65.5349,-29.336 65.5349,-65.5317 0,-36.1953 -29.34,-65.5352 -65.5349,-65.5352 -36.1914,0 -65.5312,29.3399 -65.5312,65.5352 0,36.1957 29.3398,65.5317 65.5312,65.5317 z M 6.50391,80.5586 c 0,-22.8398 4.96879,-39.0742 21.06639,-55.1719 5.4414,-5.4414 12.1914,-10.6054 19.582,-14.125 49.9922,-23.8242 103.8047,15.7617 103.8047,61.2696 v 8.0273 c 0,35.0434 -34.043,68.2144 -69.0156,68.2144 -23.5898,0 -39.6367,-6.328 -54.3711,-21.066 C 17.8047,117.945 6.50391,99.668 6.50391,80.5586" /></g></g></svg>