<?xml version="1.0" encoding="UTF-8" standalone="no"?>
<svg
   xmlns:dc="http://purl.org/dc/elements/1.1/"
   xmlns:cc="http://creativecommons.org/ns#"
   xmlns:rdf="http://www.w3.org/1999/02/22-rdf-syntax-ns#"
   xmlns:svg="http://www.w3.org/2000/svg"
   xmlns="http://www.w3.org/2000/svg"
   viewBox="0 0 17.333332 17.333332"
   height="17.333332"
   width="17.333332"
   xml:space="preserve"
   id="svg2"
   version="1.1"><metadata
     id="metadata8"><rdf:RDF><cc:Work
         rdf:about=""><dc:format>image/svg+xml</dc:format><dc:type
           rdf:resource="http://purl.org/dc/dcmitype/StillImage" /></cc:Work></rdf:RDF></metadata><defs
     id="defs6" /><g
     transform="matrix(1.3333333,0,0,-1.3333333,0,17.333333)"
     id="g10"><g
       transform="scale(0.1)"
       id="g12"><path
         id="path14"
         style="fill:#b8d6ec;fill-opacity:1;fill-rule:evenodd;stroke:none"
         d="m 44.7344,44.8711 c -0.2344,8.0195 -0.0625,16.0547 -0.0742,24.0781 -0.0118,9.8281 -2.4414,28.5664 4.1171,31.8478 2.5821,1.289 6.4571,1.418 9.0274,0.203 6.5625,-3.1211 5.0898,-10.6836 5.9141,-18.1953 9.2343,-1.4453 23.9218,1.4375 31.8164,-1.5117 0.3007,-2.0742 1.25,-1.0196 2.5156,-4.0313 0.8008,-1.9062 0.8437,-4.125 0.4375,-6.2461 C 96.207,59.043 80.6406,64.625 63.4297,63.5039 l 0.25,-15.6289 c 5.918,-0.5195 26.8476,0.4727 30.4297,-1.1133 6.5276,-2.8906 6.8946,-16.7304 -3.5742,-17.4883 -5.1993,-0.3711 -26.7969,-0.5 -30.9805,0.3438 -8.9297,1.8008 -12.3633,7.0117 -14.8203,15.2539 z m 84.0896,28.2344 v 0 l 0.09,50.4335 L 8.82031,123.52 8.67188,6.64844 C 9.21484,2.76953 7.88281,5.12109 10.0078,3.57813 L 128.742,3.40625 128.824,73.1055" /><path
         id="path16"
         style="fill:#fafbfc;fill-opacity:1;fill-rule:evenodd;stroke:none"
         d="m 44.7344,44.8711 c 2.457,-8.2422 5.8906,-13.4531 14.8203,-15.2539 4.1836,-0.8438 25.7812,-0.7149 30.9805,-0.3438 10.4688,0.7579 10.1018,14.5977 3.5742,17.4883 -3.5821,1.586 -24.5117,0.5938 -30.4297,1.1133 l -0.25,15.6289 c 17.2109,1.1211 32.7773,-4.4609 35.0586,7.5117 0.4062,2.1211 0.3633,4.3399 -0.4375,6.2461 -1.2656,3.0117 -2.2149,1.9571 -2.5156,4.0313 -7.8946,2.9492 -22.5821,0.0664 -31.8164,1.5117 -0.8243,7.5117 0.6484,15.0742 -5.9141,18.1953 -2.5703,1.215 -6.4453,1.086 -9.0274,-0.203 C 42.2188,97.5156 44.6484,78.7773 44.6602,68.9492 44.6719,60.9258 44.5,52.8906 44.7344,44.8711" /></g></g></svg>