<?xml version="1.0" encoding="UTF-8" standalone="no"?>
<svg
   xmlns:dc="http://purl.org/dc/elements/1.1/"
   xmlns:cc="http://creativecommons.org/ns#"
   xmlns:rdf="http://www.w3.org/1999/02/22-rdf-syntax-ns#"
   xmlns:svg="http://www.w3.org/2000/svg"
   xmlns="http://www.w3.org/2000/svg"
   viewBox="0 0 17.333332 17.333332"
   height="17.333332"
   width="17.333332"
   xml:space="preserve"
   id="svg2"
   version="1.1"><metadata
     id="metadata8"><rdf:RDF><cc:Work
         rdf:about=""><dc:format>image/svg+xml</dc:format><dc:type
           rdf:resource="http://purl.org/dc/dcmitype/StillImage" /></cc:Work></rdf:RDF></metadata><defs
     id="defs6" /><g
     transform="matrix(1.3333333,0,0,-1.3333333,0,17.333333)"
     id="g10"><g
       transform="scale(0.1)"
       id="g12"><path
         id="path14"
         style="fill:#b8d6ec;fill-opacity:1;fill-rule:evenodd;stroke:none"
         d="m 41.4922,92.3203 h 29.3633 c 22.5078,0 27.582,-19.5625 13.3672,-25.8437 C 110.438,48.8281 91.543,31 41.4922,35.6406 Z M 4.48828,3.80469 H 124.32 L 124.813,124.098 H 4.03125 L 4.48828,3.80469" /><path
         id="path16"
         style="fill:#b8d6ec;fill-opacity:1;fill-rule:evenodd;stroke:none"
         d="m 59.2695,47.8672 c 6.0625,0.3203 16.1328,1.5351 16.3633,5.5781 0.2305,4 -8.8906,6.1172 -16.4414,6.125 0.0234,-3.9023 0.0469,-7.8086 0.0781,-11.7031" /><path
         id="path18"
         style="fill:#b8d6ec;fill-opacity:1;fill-rule:evenodd;stroke:none"
         d="m 59.1523,70.0664 c 20.7032,0.0586 21.0079,10.7188 0,10.7852 V 70.0664" /></g></g></svg>