<?xml version="1.0" encoding="UTF-8" standalone="no"?>
<svg
   xmlns:dc="http://purl.org/dc/elements/1.1/"
   xmlns:cc="http://creativecommons.org/ns#"
   xmlns:rdf="http://www.w3.org/1999/02/22-rdf-syntax-ns#"
   xmlns:svg="http://www.w3.org/2000/svg"
   xmlns="http://www.w3.org/2000/svg"
   viewBox="0 0 17.333332 17.333332"
   height="17.333332"
   width="17.333332"
   xml:space="preserve"
   id="svg2"
   version="1.1"><metadata
     id="metadata8"><rdf:RDF><cc:Work
         rdf:about=""><dc:format>image/svg+xml</dc:format><dc:type
           rdf:resource="http://purl.org/dc/dcmitype/StillImage" /></cc:Work></rdf:RDF></metadata><defs
     id="defs6" /><g
     transform="matrix(1.3333333,0,0,-1.3333333,0,17.333333)"
     id="g10"><g
       transform="scale(0.1)"
       id="g12"><path
         id="path14"
         style="fill:#b8d6ec;fill-opacity:1;fill-rule:evenodd;stroke:none"
         d="M 128.719,73.2383 128.801,123.68 8.70313,123.652 8.55078,6.78516 C 9.10156,2.90625 7.76563,5.25781 9.89063,3.71094 L 128.633,3.54688 128.719,73.2383" /><path
         id="path16"
         style="fill:#ffffff;fill-opacity:1;fill-rule:evenodd;stroke:none"
         d="m 75.8828,29.8203 c -0.7031,-0.0586 -4.4726,-0.207 -4.7187,0.1641 -0.0586,0.0859 -0.3243,33.0586 -0.0118,34.7109 l 5.086,-0.0469 0.0586,-12.3515 c 1.1133,1.039 1.539,2.664 2.9961,3.7187 1.5078,1.086 3.7265,0.8008 4.8281,-0.4648 1.7422,-1.9961 1.1055,-8.9688 1.1055,-12.168 0,-3.207 0.4843,-10.1055 -0.9414,-12.3476 -0.7735,-1.2149 -2.6172,-2.5508 -4.6289,-1.3164 -1.4375,0.8867 -2.2618,2.8085 -2.5938,3.1875 -0.3359,0.371 -0.0469,0.1289 -0.4219,0.3437 z m 22.3516,4.9922 0.3125,2.4375 c 0.0039,0.7734 -0.0352,1.6406 0.0351,2.3672 l 4.441,0.0117 c 0,-1.9336 -0.109,-3.3476 -0.335,-5.1328 0.027,-2.0273 -2.364,-4.582 -4.2427,-4.9844 -2.8867,-0.625 -5.8945,0.0742 -7.3281,1.6719 -1.7344,1.9102 -2.0352,4.043 -2.0781,7.293 -0.0352,3.0625 -0.0391,6.2265 0.0312,9.2812 0.0703,3.043 0.4922,5.5508 2.211,7.1289 1.664,1.5156 4.5117,2.0664 7.2109,1.1992 2.2028,-0.7187 3.7228,-2.5312 4.1958,-5.0898 0.441,-2.3945 0.558,-6.1563 0.441,-8.7344 l -8.8321,-0.0312 c -0.2891,-0.9492 -0.1758,-6.9141 0.0312,-7.9883 0.4961,-2.4844 3.5469,-2.375 3.9063,0.5703 z M 60.0391,31.6211 v 0 c -0.5743,-0.8359 -1.1407,-1.8555 -2.3633,-2.1797 -5.4649,-1.4609 -4.9649,5.6211 -5,8.5039 -0.0899,5.9727 -0.1367,12.2969 0.0039,18.2969 h 5.1211 c 0.1133,-4 0.0156,-8.1445 0.0117,-12.1602 0,-1.9961 0.0234,-3.9687 0.0547,-5.9609 0.0234,-1.7656 -0.1172,-3.918 1.9766,-3.8516 2.0703,0.0586 1.8242,2.2578 1.8437,4.0274 0.0508,5.9492 -0.1016,12.0976 0.0273,17.9609 l 5.1485,-0.0156 -0.0625,-26.4727 -5.1328,0.0352 -0.0391,1.4726 z M 35.918,64.6992 v 0 l 15.7968,-0.0508 -0.0117,-5.4726 -5.2148,-0.0117 -0.0664,-29.3633 -5.4063,0.039 -0.0351,29.3243 -5.125,0.0156 z m 73.445,-23.4219 v 0 c 0.239,5.3868 0.051,11.0899 -0.226,16.5235 -0.282,5.5312 -0.953,8.3633 -5.051,11.9336 -3.797,3.2969 -7.629,3.2383 -13.7462,3.3633 -5.375,0.1054 -10.9726,0.3632 -16.4609,0.3984 -8.5039,0.0625 -16.7891,-0.082 -25.2422,-0.3281 -7.8008,-0.2227 -13.3984,0.5937 -18.3008,-7.1094 -2.2812,-3.5938 -2.0546,-9.7031 -2.125,-14.6211 -0.1015,-5.6211 -0.0429,-11.0977 0.2344,-16.668 0.1641,-3.2343 0.0938,-4.4843 1.3086,-7.2851 0.8086,-1.8594 2.3906,-3.7539 3.6719,-4.75 4.4609,-3.4688 6.8867,-3.2617 13.6406,-3.4336 14.6094,-0.3711 27.4453,-0.457 42.0547,-0.0391 2.582,0.0664 5.5391,0 8.0508,0.3047 4.7461,0.5742 8.2691,3.7774 10.1131,6.8828 2.387,4.0039 1.852,9.5352 2.078,14.8281" /><path
         id="path18"
         style="fill:#ffffff;fill-opacity:1;fill-rule:evenodd;stroke:none"
         d="m 84.7344,77.0664 c 0.6679,-0.0117 0.9922,-0.2266 1.5117,-0.457 l 0.1484,-1.2852 5.3321,-0.0703 0.0507,25.2931 c -1.1484,0.066 -4.4414,0.191 -5.3632,-0.102 -0.2071,-5.2145 0.0195,-12.0505 -0.0196,-17.6364 -0.0195,-1.9414 0.0469,-4.0781 -1.9961,-4.0352 -1.9453,0.0352 -1.8398,2.2071 -1.9062,3.8594 -0.1992,5.7227 0.2422,12.2149 -0.0547,17.8872 -1,0.121 -4.4883,0.207 -5.3164,-0.079 l 0.0352,-17.6402 c 0.1054,-2.6328 -0.2774,-5.8985 1.6406,-7.3281 0.8672,-0.6485 2.2812,-0.9258 3.5156,-0.5625 1.2891,0.375 1.6406,1.2265 2.4219,2.1562" /><path
         id="path20"
         style="fill:#ffffff;fill-opacity:1;fill-rule:evenodd;stroke:none"
         d="m 63.9219,92.4492 c 0.0156,2.0508 -0.2461,5.043 1.8984,5.1055 2.1992,0.0703 1.9531,-3.1836 1.9531,-5.1055 V 82.457 c 0,-1.9336 0.0743,-4.8906 -2.1054,-4.6562 -1.8828,0.2031 -1.7461,3.1445 -1.7461,5.0078 z m 0.3945,8.0778 v 0 c -6.4883,-1.1286 -5.7773,-8.0114 -5.75,-14.5622 0.0078,-2.9609 -0.0195,-6.6484 1.4258,-8.7968 1.3672,-2.0157 4.4297,-2.7852 7.582,-2.2617 6.1914,1.0273 5.5703,8.3945 5.5703,14.5585 0.0118,3.0665 0.0313,6.4063 -1.6367,8.504 -1.3789,1.7304 -3.8789,3.1292 -7.1914,2.5582" /><path
         id="path22"
         style="fill:#ffffff;fill-opacity:1;fill-rule:evenodd;stroke:none"
         d="m 52.5977,75.332 c 0.3671,3.3633 -0.2305,12.7969 0.1523,14.5743 0.6953,3.246 4.9297,18.3947 4.9102,19.6207 l -3.836,0.036 -3.3594,-13.7622 c -1.4414,3.1328 -3.0937,10.9332 -4.3984,13.6952 l -3.8242,0.07 c 0.0078,-0.828 4.375,-15.4293 4.9648,-17.316 1.1914,-3.8203 0.8086,-6.0742 0.8164,-10.4883 0,-7.4883 -0.5546,-6.5195 1.8399,-6.4961 0.9062,0.0039 1.8515,-0.0781 2.7344,0.0664" /><path
         id="path24"
         style="fill:#ffffff;fill-opacity:1;fill-rule:evenodd;stroke:none"
         d="m 79.9141,36.3711 c 0.414,2.0312 0.2109,7.4414 0.1757,9.8125 -0.0156,1.4414 0.0821,3.5078 -0.8437,4.3164 -1.1875,1.0469 -2.5898,0.2266 -2.8438,-1.2539 C 76,46.8906 76.2227,41.9922 76.2461,39.3477 c 0.0117,-1.4258 -0.0625,-3.5704 0.8164,-4.3516 1.3086,-1.1641 2.5625,-0.0547 2.8516,1.375" /><path
         id="path26"
         style="fill:#ffffff;fill-opacity:1;fill-rule:evenodd;stroke:none"
         d="m 94.1953,48.4648 0.0156,-3.3007 3.7774,0.0039 c 0.0469,1.6211 0.25,5.4961 -0.5703,6.5117 -0.6563,0.8125 -2.0274,0.7344 -2.6992,-0.0547 -0.6446,-0.7656 -0.5235,-1.9883 -0.5235,-3.1602" /></g></g></svg>